<?xml version="1.0" encoding="utf-8"?>
<!-- Generator: Adobe Illustrator 23.0.1, SVG Export Plug-In . SVG Version: 6.00 Build 0)  -->
<svg version="1.1" id="Layer_1" xmlns="http://www.w3.org/2000/svg" xmlns:xlink="http://www.w3.org/1999/xlink" x="0px" y="0px"
	 viewBox="0 0 355.4 358.8" style="enable-background:new 0 0 355.4 358.8;" xml:space="preserve">
<style type="text/css">
	.st0{fill:#0D24A6;}
	.st1{fill:#FFFFFF;}
	.st2{fill:#6EC6F4;}
</style>
<g>
	<path class="st0" d="M288.1,143c10.4-5.5,20.7-11.1,31.3-16.7c0.7,1.7,1.3,3.1,1.8,4.6c4.4,12.2,7.4,24.8,8.4,37.7
		c0.4,6.2,0.7,12.5,0.4,18.7c-0.7,14.2-3.6,28-8.3,41.4c-4.6,13.1-10.8,25.4-18.5,37c-2.2,3.3-4.3,6.6-6.7,9.6
		c-2.4,3-5.1,5.7-7.9,8.3c-4.8,4.4-9.7,8.8-14.8,12.9c-14.7,11.8-31.1,20.7-49,26.8c-11.2,3.8-22.7,6.3-34.6,7.5
		c-6.8,0.7-13.6,1-20.3,0.7c-15.5-0.7-30.5-3.6-45.1-8.9c-16.1-5.9-30.6-14.4-43.8-25.2c-11-9-20.2-19.8-28.3-31.4
		c-4-5.8-7.6-11.8-10.8-18.1c-5.6-11.2-9.8-22.8-12.5-35.1c-1.7-7.7-2.9-15.4-3.2-23.2c-0.4-9.1-0.3-18.2,0.7-27.3
		c1.4-12.3,4.2-24.2,8-35.9c1.7,0.2,23,11.1,31.1,16c-0.1,0.5-0.2,1-0.3,1.5c-2.2,7.9-3.6,15.9-4,24c-0.2,3.3-0.3,6.5-0.3,9.8
		c-0.1,7.9,0.7,15.8,2,23.6c2.1,12.4,5.8,24.2,11.7,35.3c4.3,8,9.7,15.2,16.5,21.3c2.3,2.1,4.3,4.5,6.5,6.7
		c7.5,7.5,16,13.4,25.3,18.4c11,5.8,22.8,9.6,35,11.6c3.8,0.6,7.8,0.8,11.7,1.1c2.2,0.2,4.5,0.4,6.7,0.3c11.4-0.2,22.5-1.8,33.4-5.2
		c17-5.3,32.1-14.1,45.6-25.6c3.8-3.3,7.4-6.8,10.9-10.4c1.7-1.8,3.1-3.8,4.5-5.9c7.8-11.4,13.7-23.8,17.2-37.2
		c2.2-8.4,3.7-17,4-25.7c0.1-2.6,0.3-5.1,0.3-7.6c-0.1-8.5-0.9-16.9-2.5-25.2C289.7,149.8,288.9,146.5,288.1,143z"/>
	<path d="M259.3,75.7c-0.4,0.3-0.8,0.8-1.3,1.2c-2.4,1.8-3.3,1.8-5.7,0c-0.9-0.7-2.3-1.2-2.7-2.8c2.8,0,5.4,0,8.2,0
		c0-1.3,0-2.6,0-3.9c1.2-0.6,2.3-1.1,3.4-1.7c1.6,4.5,2.3,4.9,5.9,4.1c0.1,0.1,0.3,0.3,0.3,0.4c-0.8,2,0.2,3.2,1.8,4.4
		c1.3,1,2.5,2.1,4.1,3.4c0.1-2.8-1.7-3.5-3.4-4.3c2.3-2.6,5.4-2.1,6.7,0.9c0.9,2.2,1.8,4.4,2.8,6.7c-0.9,0.4-1.9,0.9-3,1.3
		c-1.5-1.3-3.1-1.7-5-1.9c-3.7-0.5-6.4-2.6-8-5.7C262.1,77,260.8,76.4,259.3,75.7z"/>
	<path d="M288.1,104.3c-1.7-1.6-3.1-2.9-4.3-4.1c-1.5,0.4-2.9,0.9-4.3,1.2c-0.4,0.1-0.9,0.1-1.1-0.1c-1.6-1.4-2.9-3.1-3.9-5
		c2.9,0,5.4,2,8.5,1.6c0.2-1.2,0.4-2.3,0.7-3.6c1.2-0.3,2.4-0.5,3.8-0.8c0.2,1.8-0.1,3.7,1.5,4.9c2.1-0.9,4.3-1.8,6.9-1.7
		c0.5,2.5,0.6,5-0.1,7.4c-0.2,0.7-0.5,1.3-1,1.9c-0.9,1.3-3.1,2.2-4.4,1.9C288.2,107.2,288.2,105.6,288.1,104.3z M291.8,101.7
		c0.4-1.3,0.3-2-1.1-2.1C290.3,100.7,290.5,101.3,291.8,101.7z M291.8,105.6c0.2-0.6,0.4-1.1,0.8-1.9
		C290.9,103.7,290.7,104.3,291.8,105.6z"/>
	<path d="M192,43.5c-0.1,1-0.1,1.7-0.2,2.3c-0.4,2,0,2.8,1.8,3.6c2.5,1,5.1,1.3,7.7,0.1c-1-0.2-2-0.4-3-0.7c-2.4-0.7-3-1.9-1.9-4.1
		c0.6-1.2,1.6-2.4,2.6-3.4c1.4-1.2,2.5-1.2,3.7-0.4c1.3,0.9,1.7,2,1.2,4.1c-1.7-0.4-3.4-1.8-5.5,0.1c1.3,0.4,2.4,0.7,3.4,1
		c1.4,0.5,2.1,1.4,2,2.8c-0.2,2.6-2.1,4.8-4.7,5.4c-2.6,0.6-5.1,0.4-7.5-0.6c-1.7-0.7-2.7-2-2.9-3.8c-0.2-2.2,0.6-4.1,1.8-5.8
		C190.8,43.8,191.2,43.8,192,43.5z"/>
	<path d="M100.9,63.3c3.6,0.5,6.1-1,8.4-3.3c-0.7,0.3-1.4,0.7-2.1,0.9c-1.5,0.5-2.4,0-3-1.5c-0.1-0.2-0.2-0.4-0.2-0.7
		c-0.5-1.9-0.2-3.3,1.1-4.1c1.1-0.7,2.6-0.5,3.9,0.8c1,1,2,2.1,2.6,3.4c1.5,2.9,0.8,5.4-2,7.2c-0.8,0.5-1.6,1-2.2,1.3
		c0.3,1.7,0.5,3.1,0.8,4.6c0.1,0.9-0.3,1.5-1,2c-1.3,0.9-2.6,1.8-3.9,2.7c-0.9-0.4-0.9-0.9-0.5-1.6c0.6-1.1,1.2-2.3,1.6-3.5
		c0.4-0.9,0.5-2,0.8-3.1c-0.8-0.3-1.3-0.7-1.9-0.8c-1.6-0.1-2.1-1-2.1-2.3C101,64.8,100.9,64.2,100.9,63.3z M105.9,57.8
		c0.1,0.1,0.1,0.3,0.2,0.4c0.4-0.1,0.8-0.2,1.2-0.4c0.1-0.1,0.1-0.4,0.2-1C106.7,57.3,106.3,57.6,105.9,57.8z"/>
	<path d="M57.8,116.1c1.6,2.7,5.6,2.5,6,6.2c-0.8-0.2-1.5-0.1-2-0.4c-2-0.9-3.9-1.9-5.8-2.9c-2-1.1-2.4-2.3-1.7-4.4
		c0.2-0.7,0.4-1.5,0.7-2.4c2.4-1.1,4.4-2.8,5.5-5.9c-1.1,0.2-2,0.3-3.1,0.4c-0.5-1.1-1-2.2-1.5-3.4c3-0.8,7.2,0.9,8.3,3.4
		c0.3,0.7,0.3,1.6,0.1,2.3c-0.3,1-0.8,1.9-1.2,2.9c0,0,0,0.1,0.1,0.1c0.8,0.9,1.7,1.8,0.9,3.2c-0.8,1.3-2,1.4-3.4,1.2
		C59.9,116.5,59.2,116.4,57.8,116.1z M58.8,114c1.4,0.8,1.4,0.8,2.6-0.4C60.4,113,59.6,113.6,58.8,114z"/>
	<path d="M239.5,57c-0.3-1-0.5-1.7-0.8-2.7c1.1-0.6,2.2-1.2,3.5-2c0.7,3.4-0.2,6-2.4,8.3c-0.9,0.9-1.9,1-3.1,0.8
		c-2.6-0.6-3.8-1.7-5-4.5c-1.5,0.6-3,1.7-4.6,0.7c-0.7-0.4-1.5-1-1.9-1.7c-0.9-1.7,0.1-3.9,2.4-5.4c0.3,2.2,1.3,3.7,4.1,3.4
		c0.1-1.5,0.1-3.1,0.2-4.7c1.1-0.4,2.2-0.8,3.3-1.3c0,1.8,0,3.3,0,4.7C235.2,55.7,235.9,56.5,239.5,57z"/>
	<path d="M129.1,51.2c-1.1-0.5-1.7-0.7-2.5-1.1c0.1-1.2,0.2-2.3,0.4-3.8c0.8,0.3,1.4,0.4,1.8,0.7c3.6,2.4,3.5,7.4-0.1,9.8
		c-2.1,1.3-4.3,2.5-6.8,2.7c-3.5,0.3-6-3.4-4.5-6.6c0.3,0.2,0.6,0.2,0.8,0.5c1.7,1.9,2,2.1,4.2,1.3c1.6-0.6,3.3-1.3,4.8-2
		C127.8,52.4,128.3,51.9,129.1,51.2z"/>
	<path d="M289,116c2,1.1,4,2.3,6.2,3.5c0.1-0.6,0.2-0.8,0.1-1c-0.8-2.7-0.4-3.7,2.1-4.6c1-0.4,2.2-0.6,3.3-0.6
		c2.1,0.1,3.1,2.1,1.9,3.7c-0.9,1.3-2.3,2.4-3.7,3.3c-1.3,0.8-2.9,1.3-4.4,1.7c-2.2,0.6-3.2,0.1-4.3-1.9c-0.6-1.2-1.2-2.5-1.8-3.8
		C288.6,116.3,288.8,116.1,289,116z M299,117.1c0.2-0.1,0.4-0.1,0.6-0.2c-0.2-0.4-0.4-0.9-0.6-1.3c-0.1,0.1-0.3,0.1-0.4,0.2
		C298.7,116.2,298.9,116.6,299,117.1z"/>
	<path d="M137.9,53.6c-0.4-0.7-0.8-1.3-1.1-2c-0.8-2.4-1.5-4.9-2.4-7.2c-0.6-1.5-0.5-2.6,0.9-3.5c0.3-0.2,0.5-0.4,0.8-0.7
		c-2.6-0.3-3.9,0.1-5.2,1.4c-1.2-1.3-0.1-2.3,0.3-3.6c2.8-0.5,5.8-0.3,8.2-2.6c0.3,2.3-1.5,2.7-2.2,3.9c0.8,4.7,3.4,9.3,1.4,14.2
		C138.4,53.4,138.1,53.5,137.9,53.6z"/>
	<path d="M62.4,100.2c2.9,0.6,3.9-1.1,4.9-3.2c-2-0.5-3.4,0.8-5.2,1.2c-0.6-1.2-1.2-2.4-1.8-3.5c3.4-2.2,8-1.3,10,1.9
		c0.6,1,0.9,2.2,0.3,3.4c-0.2,0.5-0.4,1.1-0.8,1.5c-1,1.2-2,2.6-3.9,2.4C64.6,103.8,63.4,102.6,62.4,100.2z"/>
	<path d="M71.4,81.2c3.7-1.6,7.3-0.7,9.3,2.2c1.9,2.8-0.3,7.4-3.6,7.7c-1.8,0.2-3.6-1.6-3.9-3.9c0.9-0.1,2,0.2,2.6-0.2
		c0.9-0.6,1.6-1.6,2.6-2.7c-2.2-0.7-3.8,0.7-5.7,0.6C72.3,83.6,71.9,82.4,71.4,81.2z"/>
	<path d="M224.5,49.6c-0.3,2.1-1.1,3.7-3,4.6c-1.7,0.8-3.1,0.3-4.5-0.6c-1.4-0.9-1.9-2.3-1.1-3.7c0.8-1.6,1.9-3.1,3-4.5
		c0.7-0.9,1.6-0.9,2.6-0.3C223.2,46.1,224.3,47.6,224.5,49.6z M222.3,50.2c-1-0.7-1.7-1.3-2.4-1.7c-0.2-0.1-0.8,0.1-1,0.3
		c-0.1,0.2,0,0.9,0.2,1C219.9,50.5,220.7,50.9,222.3,50.2z"/>
	<path d="M160.8,33.8c1,5,2.8,9.9,0.8,15.5c-0.6-0.8-1.1-1.1-1.2-1.5c-1-3-1.9-6.1-2.8-9.1c-0.2-0.5-0.1-1.3,0.2-1.8
		c0.7-1.1,1.6-2.1,2.4-3.2C160.4,33.7,160.6,33.7,160.8,33.8z"/>
	<path d="M171.2,48.3c-0.4-1.1-0.8-1.9-1-2.7c-0.6-2.5-1.1-5-1.8-7.4c-0.4-1.4,0-2.3,0.8-3.2c0.7-0.7,1.4-1.5,2.1-2.3
		C173.3,37,173.4,45.6,171.2,48.3z"/>
	<path d="M212.1,36.7c-0.9,4.9-0.7,10.2-4.2,14.5c-1.1-0.5-1-1.2-1-1.9c0.1-3.1,0.3-6.2,0.5-9.3c0-0.5,0.5-1.2,0.9-1.5
		c1-0.8,2.1-1.4,3.2-2.1C211.7,36.5,211.9,36.6,212.1,36.7z"/>
	<path d="M92.2,77.4c-1.2-0.2-2.2-0.5-3.6-0.7c-0.3-1.1-0.5-2.2-0.8-3.5c1.4-0.5,2.4-0.3,3.4,0.4c2.2,1.5,3.8,3.4,4.5,6
		c0.4,1.6,0.3,2.8-1.1,3.7c-1.3,0.9-2.3,2.1-4.1,2.9C90.6,82.9,92.7,80.5,92.2,77.4z"/>
	<path d="M63.8,83.8c4.6,3.2,9.2,5.7,11.8,10.9c-0.8,0-1.3,0.2-1.6,0.1c-3-1.6-6-3.3-9-5c-0.5-0.3-0.8-1-0.9-1.5
		C63.9,86.9,63.9,85.6,63.8,83.8z"/>
	<path d="M237.9,67.3c2.7-0.5,5.5-0.1,8.3-1.3c-0.3-1.2-0.5-2.3-0.8-3.7c0.9-0.7,2-1.4,3-2.1c1,0.8,1.1,1.9,0.9,2.9
		c-0.4,3.1-2,5.5-4.6,7.2c-0.9,0.6-1.9,0.8-2.9,0.1c-1.4-0.9-2.8-1.6-4.3-2.4C237.8,67.8,237.9,67.5,237.9,67.3z"/>
	<path d="M97.3,74.3c-1.1-0.7-1.9-1.2-2.5-1.8c-1.8-1.7-3.6-3.4-5.4-5.1c-1-0.9-1.5-1.7-1.1-3.1c0.3-1,0.3-2.1,0.5-3.3
		C93.3,64.3,97.4,70.6,97.3,74.3z"/>
	<path d="M149.2,55.8c2-2.4,4.7-3.5,6-6.3c-0.9-0.8-1.8-1.7-2.8-2.6c0.4-1.1,0.7-2.3,1.2-3.7c3.3,1.7,3.8,4.5,3.9,7.5
		c0,1-0.3,2-0.6,3c-0.3,1.1-1.1,1.8-2.2,1.8C152.9,55.6,151.4,56.4,149.2,55.8z"/>
	<path d="M174.3,52.6c1.9-2,5.1-2.3,6.6-5c-0.7-0.9-1.4-1.9-2.2-2.9c0.6-1.1,1.2-2.2,1.8-3.4c1.8,1.2,2.5,2.8,2.6,4.6
		c0.2,2.4-0.1,4.8-1.7,6.7c-0.3,0.4-0.9,0.9-1.3,0.9c-1.9,0-3.7-0.2-5.6-0.4C174.4,53,174.3,52.8,174.3,52.6z"/>
	<path d="M263.1,82.1c-1.4,0.4-2.3,0.6-2.6-0.7c-0.1-0.3-0.5-0.6-0.9-0.7c-0.9-0.1-1.4-0.6-1.1-1.4c0.2-0.5,0.9-0.8,1.5-1.3
		c0.7,1,0.5,2.4,2.1,2.2C262.4,80.3,262.7,81.3,263.1,82.1z"/>
	<path d="M100.8,53.4c0.5-0.7,1-1.6,1.1-1.5c1.6,0.7,2.2-2.8,4.1-0.8c-0.2,0.8-0.2,1.7-1.6,1.7c-0.5,0-1,0.8-1.7,1.3
		C102.3,53.9,101.7,53.7,100.8,53.4z"/>
	<path d="M69.1,108c0.3,1,1.1,1.8-0.4,2.4c-0.3,0.1-0.6,0.6-0.5,0.9c0.1,1.5-0.8,1.4-1.9,1.4c-0.4-0.9-0.8-1.6,0.3-2.2
		c0.3-0.2,0.7-0.7,0.7-1.1C67.2,108.1,68.2,108.2,69.1,108z"/>
	<path d="M268.9,87.8c-0.4-0.3-0.7-0.6-1.2-0.8c-1.1-0.4-0.8-1.2-0.6-2c0.9-0.2,1.7-0.5,2,0.8c0.1,0.3,0.6,0.8,0.9,0.8
		c1.1,0.3,1,1,1,2.1c-0.9-0.1-1.6-0.2-2.4-0.3C268.8,88.3,268.9,88.1,268.9,87.8z"/>
	<path d="M251.1,57.3c-0.7,0.2-1.3,0.4-2,0.7c-0.3-0.7-0.6-1.4-0.9-2C250.4,54.8,250.5,54.8,251.1,57.3z"/>
	<path d="M129.1,60.2c-0.3,0.7-0.6,1.4-0.9,2.1c-0.8-0.3-1.4-0.5-2-0.7C126.7,59.1,126.7,59.1,129.1,60.2z"/>
	<path d="M153.8,39.4c-0.5,0.7-0.9,1.3-1.3,1.9c-0.7-0.5-1.3-0.8-2-1.3c0.5-0.7,0.9-1.2,1.4-1.9C152.5,38.6,153.1,39,153.8,39.4z"/>
	<path d="M241.2,48.3c0.9-0.3,1.4-0.5,2.1-0.7c0.3,0.7,0.7,1.4,1.1,2.2c-0.8,0.3-1.5,0.5-2.3,0.7C241.8,49.7,241.6,49.1,241.2,48.3z
		"/>
	<path d="M261.3,63.9c1,0,1.7,0,2.5,0c0.1,0.7,0.1,1.4,0.2,2.2c-0.8,0-1.4,0.1-2.1,0.1C261.7,65.5,261.6,64.8,261.3,63.9z"/>
	<path d="M268.9,87.8c0,0.2-0.1,0.5-0.1,0.7c-0.6,1-0.6,1-2.1,1.1c-0.1-0.6-0.1-1.1-0.2-1.9C267.4,87.8,268.1,87.8,268.9,87.8z"/>
	<path class="st1" d="M291.8,101.7c-1.3-0.4-1.5-1.1-1.1-2.1C292.1,99.7,292.2,100.5,291.8,101.7z"/>
	<path class="st1" d="M291.8,105.6c-1.1-1.2-1-1.8,0.8-1.9C292.3,104.4,292.1,105,291.8,105.6z"/>
	<path class="st1" d="M105.9,57.8c0.4-0.3,0.8-0.5,1.5-1c-0.1,0.6-0.1,0.9-0.2,1c-0.4,0.2-0.8,0.3-1.2,0.4
		C106,58.1,105.9,58,105.9,57.8z"/>
	<path class="st1" d="M58.8,114c0.8-0.4,1.6-1,2.6-0.4C60.2,114.9,60.2,114.9,58.8,114z"/>
	<path class="st1" d="M299,117.1c-0.1-0.4-0.3-0.9-0.4-1.3c0.1-0.1,0.3-0.1,0.4-0.2c0.2,0.4,0.4,0.9,0.6,1.3
		C299.4,116.9,299.2,117,299,117.1z"/>
	<path class="st1" d="M222.3,50.2c-1.6,0.7-2.4,0.3-3.2-0.3c-0.2-0.2-0.3-0.8-0.2-1c0.1-0.2,0.7-0.4,1-0.3
		C220.7,48.9,221.3,49.5,222.3,50.2z"/>
</g>
<g>
	<g>
		<path class="st2" d="M80.5,226.5c27.1-4.6,45.9-13.4,57.9-20.4c17.4-10.2,19.7-16.2,47.8-35c42.1-28.1,50.7-23.8,52.9-22.2
			c1.4,1.1,1.2,1.8,4.6,10.6c5,13.2,7.5,19.7,10.8,23.2c3,3.2,10.6,8.7,30.8,6.3c0,0-0.9,16.3-3.7,24.6s-5.1,13.9-5.1,13.9
			s-15.9-0.9-32.6-10.9c-16.8-10-20.2-20.9-23.9-21.3c-3.7-0.4-14.5,15.2-44.8,32.2s-35.9,19.6-44.4,21.9s-16.3,5-22.1,5.9
			c-5.7,0.9-8.7,0-8.7,0s-8.3-7.8-11-12.6C86.2,238.1,80.5,226.5,80.5,226.5z"/>
		<path class="st2" d="M110.8,265.4c0,0,38.6-9.8,58.2-22.2s43.1-35.1,46.2-35.9c8.7-2.2,6.5,9.4,25.3,18.3
			c19.8,9.3,32.2,9.7,32.2,9.7s-4.8,8.5-11.3,15.7c-6.4,7.2-14.9,14.3-14.9,14.3s-10.1-4.2-18.8-8.7c-5.3-2.7-10.8-10.2-14.3-9.1
			c-3.4,1.1-12.4,9.5-30.5,21.9c-8.6,6-34.4,15.4-34.4,15.4s-9.9-2.2-21.4-8.3C115.6,270.7,110.8,265.4,110.8,265.4z"/>
		<path class="st2" d="M166,287.6c0,0,12.9-3.3,25.7-13c12.9-9.8,15.9-14.1,19.5-14.8c3.7-0.7,24.6,12.4,24.6,12.4
			s-14.3,9.6-30.6,12.8C189,288.3,166,287.6,166,287.6z"/>
	</g>
</g>
</svg>
