<?xml version="1.0" encoding="utf-8"?>
<!-- Generator: Adobe Illustrator 23.0.1, SVG Export Plug-In . SVG Version: 6.00 Build 0)  -->
<svg version="1.1" id="Capa_1" xmlns="http://www.w3.org/2000/svg" xmlns:xlink="http://www.w3.org/1999/xlink" x="0px" y="0px"
	 viewBox="0 0 480 480" style="enable-background:new 0 0 480 480;" xml:space="preserve">
<style type="text/css">
	.st0{fill:#C4D82E;}
</style>
<g id="XMLID_1_">
	<path class="st0" d="M280,179l176.2,35c14.2,3,23.8,15,23.8,29.2v204c0,16.6-13.4,30-30,30H269.9c5.6,0,10-4.4,10-10v-10h170
		c5.4,0,10-4.4,10-10V243.2c0-4.6-3.2-8.8-7.8-9.8L280,199.3V179z"/>
	<path class="st0" d="M390,277.2c5.6,0,10,4.4,10,10s-4.4,10-10,10h-40c-5.6,0-10-4.4-10-10s4.4-10,10-10H390z"/>
	<path class="st0" d="M390,337.1c5.6,0,10,4.4,10,10c0,5.6-4.4,10-10,10h-40c-5.6,0-10-4.4-10-10c0-5.6,4.4-10,10-10H390z"/>
	<path class="st0" d="M390,397.2c5.6,0,10,4.4,10,10c0,5.6-4.4,10-10,10h-40c-5.6,0-10-4.4-10-10c0-5.6,4.4-10,10-10H390z"/>
	<path class="st0" d="M280,467.2c0,5.6-4.4,10-10,10s-10-4.4-10-10v-10v-270c0-3,1.4-5.8,3.6-7.8c2.4-1.8,5.4-2.6,8.4-2l8,1.6v20.5
		v257.8V467.2z"/>
	<path class="st0" d="M259.9,457.2v10c0,5.6,4.4,10,10,10h-80c5.6,0,10-4.4,10-10v-10H259.9z"/>
	<path class="st0" d="M210,97.2c5.6,0,10,4.4,10,10c0,5.7-4.4,10-10,10h-40c-5.6,0-10-4.4-10-10c0-5.7,4.4-10,10-10H210z"/>
	<path class="st0" d="M220,167.2c0,5.6-4.4,10-10,10h-40c-5.6,0-10-4.4-10-10s4.4-10,10-10h40C215.5,157.2,220,161.6,220,167.2z"/>
	<path class="st0" d="M210,217.2c5.6,0,10,4.4,10,10c0,5.6-4.4,10-10,10h-40c-5.6,0-10-4.4-10-10c0-5.6,4.4-10,10-10H210z"/>
	<path class="st0" d="M210,277.2c5.6,0,10,4.4,10,10s-4.4,10-10,10h-40c-5.6,0-10-4.4-10-10s4.4-10,10-10H210z"/>
	<path class="st0" d="M119.9,287.2c0,5.6-4.4,10-10,10H70c-5.6,0-10-4.4-10-10s4.4-10,10-10h40C115.6,277.2,119.9,281.5,119.9,287.2
		z"/>
	<path class="st0" d="M110,97.2c5.6,0,10,4.4,10,10c0,5.7-4.4,10-10,10H70c-5.6,0-10-4.4-10-10c0-5.7,4.4-10,10-10H110z"/>
	<path class="st0" d="M110,157.2c5.6,0,10,4.4,10,10s-4.4,10-10,10H70c-5.6,0-10-4.4-10-10s4.4-10,10-10H110z"/>
	<path class="st0" d="M110,217.2c5.6,0,10,4.4,10,10c0,5.6-4.4,10-10,10H70c-5.6,0-10-4.4-10-10c0-5.6,4.4-10,10-10H110z"/>
	<path class="st0" d="M180,367.2c0-5.6-4.6-10-10-10h-60c-5.6,0-10,4.4-10,10v90H79.9v-90c0-16.6,13.4-30,30-30h60
		c16.6,0,30,13.4,30,30v90h-20L180,367.2L180,367.2z"/>
	<path class="st0" d="M100,457.2h80h20v10c0,5.6-4.4,10-10,10h-100c-5.6,0-10-4.4-10-10v-10H100z"/>
	<path class="st0" d="M34.9,1.2l219.8,33.4c14.6,2.4,25.2,14.8,25.2,29.6v114.8l-8-1.6c-3-0.6-6,0.2-8.4,2c-2.2,2-3.6,4.8-3.6,7.8
		V64.2c0-5-3.6-9.2-8.4-10L31.8,20.9c-0.6-0.2-1.2-0.2-1.8-0.2c-2.4,0-4.6,0.8-6.4,2.4c-2.4,2-3.6,4.6-3.6,7.6v416.4
		c0,5.6,4.6,10,10,10h50v10c0,5.6,4.4,10,10,10H30c-16.6,0-30-13.4-30-30V30.8c0-8.8,3.8-17.2,10.6-22.8C17.4,2.2,26.1-0.2,34.9,1.2
		z"/>
</g>
</svg>
