<?xml version="1.0" encoding="utf-8"?>
<!-- Generator: Adobe Illustrator 23.0.1, SVG Export Plug-In . SVG Version: 6.00 Build 0)  -->
<svg version="1.1" id="Capa_1" xmlns="http://www.w3.org/2000/svg" xmlns:xlink="http://www.w3.org/1999/xlink" x="0px" y="0px"
	 viewBox="0 0 11.6 9.7" style="enable-background:new 0 0 11.6 9.7;" xml:space="preserve">
<style type="text/css">
	.st0{fill:#030104;}
	.st1{fill:#FEFFE7;}
</style>
<g>
	<g>
		<g>
			<path class="st0" d="M5,9C4.8,9,4.7,8.9,4.6,8.8L3.7,7.6C3.5,7.3,3.1,7,2.6,6.8C2.4,6.6,2.1,6.5,1.8,6.4C1.7,6.3,1.6,6.3,1.5,6.2
				c-0.1,0-0.3-0.1-0.4-0.1C1,6.1,0.8,6,0.8,5.8s-0.1-0.3,0-0.4L2,3c0.1-0.1,0.2-0.2,0.3-0.3h0.1c0.1,0,0.2,0,0.3,0.1
				C2.9,2.9,3,3,3.1,3.1c0.2,0.2,0.4,0.3,0.5,0.4C3.9,3.7,4.2,4,4.5,4.3c0.2,0.2,0.3,0.3,0.4,0.5L5,4.7c0.5-0.6,1-1.1,1.5-1.5
				c0.6-0.5,1.1-1,1.6-1.4c0.7-0.5,1.3-0.8,2-1h0.1c0.2,0,0.4,0.1,0.5,0.3c0.1,0.2,0,0.5-0.2,0.6C10,1.9,9.6,2.3,9.1,2.8
				C8.7,3.2,8.3,3.7,7.9,4.3c-0.3,0.5-0.7,1-1,1.6S6.3,7.1,6,7.6L5.5,8.7C5.4,8.9,5.2,9,5,9L5,9z"/>
			<path class="st1" d="M10.3,1.2L10.3,1.2 M10.3,1.2C9.7,1.5,9.2,2,8.8,2.4C8.3,2.9,7.9,3.4,7.5,4C7.1,4.5,6.8,5.1,6.4,5.6
				C6.1,6.2,5.8,6.8,5.5,7.3L5,8.4L4.1,7.2c-0.3-0.4-0.7-0.7-1.3-1C2.6,6.2,2.3,6,2,5.9c-0.1,0-0.2-0.1-0.4-0.1
				C1.5,5.7,1.3,5.6,1.2,5.6l1.2-2.4c0.2,0.1,0.3,0.2,0.5,0.3C3,3.6,3.2,3.7,3.3,3.8c0.3,0.3,0.6,0.6,0.9,0.8
				c0.2,0.3,0.5,0.6,0.7,0.9l0,0c0.2-0.2,0.3-0.4,0.5-0.6c0.5-0.5,1-1,1.5-1.5s1-0.9,1.6-1.3C9,1.7,9.6,1.4,10.3,1.2 M10.3,0.2h-0.1
				c-0.1,0-0.1,0-0.2,0C9.3,0.4,8.7,0.7,7.9,1.3C7.3,1.7,6.8,2.2,6.2,2.7C5.8,3.1,5.4,3.5,4.9,4c0,0,0,0-0.1-0.1
				C4.6,3.6,4.3,3.4,4,3.1C3.8,3,3.7,2.9,3.5,2.7H3.4C3.3,2.6,3.1,2.5,2.9,2.4C2.8,2.3,2.6,2.2,2.4,2.2c-0.1,0-0.2,0-0.3,0
				C1.9,2.3,1.6,2.5,1.5,2.8L0.3,5.2C0.2,5.4,0.2,5.8,0.3,6C0.4,6.3,0.7,6.5,1,6.6c0.1,0,0.2,0.1,0.3,0.1c0.1,0.1,0.3,0.1,0.4,0.2
				C1.9,7,2.1,7.1,2.4,7.2c0.4,0.2,0.8,0.5,0.9,0.7l0.9,1.2C4.4,9.3,4.7,9.5,5,9.5h0.1c0.3,0,0.7-0.3,0.8-0.6l0.5-1.1
				c0.2-0.5,0.5-1.1,0.9-1.7C7.6,5.5,8,5,8.3,4.5c0.4-0.6,0.8-1,1.1-1.4c0.5-0.5,0.9-0.8,1.3-1c0.3-0.2,0.6-0.5,0.6-0.9
				C11.3,0.7,10.8,0.2,10.3,0.2L10.3,0.2L10.3,0.2z M10.3,2.2L10.3,2.2L10.3,2.2L10.3,2.2z"/>
		</g>
	</g>
</g>
</svg>
