<?xml version="1.0" encoding="utf-8"?>
<!-- Generator: Adobe Illustrator 23.0.1, SVG Export Plug-In . SVG Version: 6.00 Build 0)  -->
<svg version="1.1" id="Capa_1" xmlns="http://www.w3.org/2000/svg" xmlns:xlink="http://www.w3.org/1999/xlink" x="0px" y="0px"
	 viewBox="0 0 512 512" style="enable-background:new 0 0 512 512;" xml:space="preserve">
<style type="text/css">
	.st0{opacity:0.47;fill:url(#SVGID_1_);enable-background:new    ;}
	.st1{fill:#FFFFFF;}
	.st2{fill:#FFC107;}
</style>
<g>
	
		<radialGradient id="SVGID_1_" cx="256" cy="424.9971" r="151.912" gradientTransform="matrix(1 0 0 -0.4 0 621.6989)" gradientUnits="userSpaceOnUse">
		<stop  offset="2.717173e-07" style="stop-color:#000000"/>
		<stop  offset="0.125" style="stop-color:#040404;stop-opacity:0.875"/>
		<stop  offset="0.2505" style="stop-color:#101010;stop-opacity:0.7495"/>
		<stop  offset="0.3762" style="stop-color:#242424;stop-opacity:0.6238"/>
		<stop  offset="0.5023" style="stop-color:#404040;stop-opacity:0.4977"/>
		<stop  offset="0.6286" style="stop-color:#656565;stop-opacity:0.3714"/>
		<stop  offset="0.7551" style="stop-color:#929292;stop-opacity:0.2449"/>
		<stop  offset="0.8793" style="stop-color:#C5C5C5;stop-opacity:0.1207"/>
		<stop  offset="1" style="stop-color:#FFFFFF;stop-opacity:0"/>
	</radialGradient>
	<ellipse class="st0" cx="256" cy="451.7" rx="206.2" ry="60.3"/>
	<g>
		<circle class="st1" cx="252.5" cy="161.7" r="118.5"/>
		<path class="st2" d="M256,0C168.2,0,96.8,71.4,96.8,159.2c0,29.7,8.2,58.6,23.9,83.6l124.5,203.8c2.1,3.4,5.3,5.6,9,6.1
			c5,0.8,10.6-1.3,13.5-6.4l124.9-205.7c14.9-24.4,22.6-52.8,22.6-81.5C415.2,71.4,343.8,0,256,0z M256,270.2
			c-62.2,0-111-50.3-111-111c0-61.1,49.9-111,111-111s111,49.9,111,111C367,219.6,318.9,270.2,256,270.2z"/>
	</g>
</g>
<path class="st2" d="M287.5,142.8h-20.3l23.2-52.2c0.7-1.6,0-3.4-1.6-4.1c-0.4-0.2-0.8-0.3-1.3-0.3h-62.9c-1.7,0-3.1,1.4-3.2,3.1
	c0,0.1,0,0.2,0,0.3l6.3,81.8c0.1,1.6,1.5,2.9,3.1,2.9h9.7l6,60.1c0.2,1.7,1.7,3,3.4,2.8c1.1-0.1,2.1-0.8,2.6-1.9l37.7-88.1
	c0.7-1.6-0.1-3.4-1.7-4.1C288.3,142.9,287.9,142.8,287.5,142.8z"/>
</svg>
