<?xml version="1.0" encoding="utf-8"?>
<!-- Generator: Adobe Illustrator 23.0.1, SVG Export Plug-In . SVG Version: 6.00 Build 0)  -->
<svg version="1.1" id="Layer_1" xmlns="http://www.w3.org/2000/svg" xmlns:xlink="http://www.w3.org/1999/xlink" x="0px" y="0px"
	 viewBox="0 0 141.7 141.7" style="enable-background:new 0 0 141.7 141.7;" xml:space="preserve">
<style type="text/css">
	.st0{fill:#FDC113;}
</style>
<path class="st0" d="M87.7,60.7H76.9l12.4-28c0.4-0.9,0-1.8-0.9-2.2c-0.2-0.1-0.4-0.2-0.7-0.2H54c-0.9,0-1.7,0.8-1.7,1.7
	c0,0.1,0,0.1,0,0.2l3.4,43.8c0.1,0.9,0.8,1.6,1.7,1.6h5.2l3.2,32.2c0.1,0.9,0.9,1.6,1.8,1.5c0.6-0.1,1.1-0.4,1.4-1l20.2-47.2
	c0.4-0.9-0.1-1.8-0.9-2.2C88.2,60.8,87.9,60.7,87.7,60.7z"/>
</svg>
