<?xml version="1.0" encoding="utf-8"?>
<!-- Generator: Adobe Illustrator 23.0.1, SVG Export Plug-In . SVG Version: 6.00 Build 0)  -->
<svg version="1.1" id="Capa_1" xmlns="http://www.w3.org/2000/svg" xmlns:xlink="http://www.w3.org/1999/xlink" x="0px" y="0px"
	 viewBox="0 0 477.9 477.9" style="enable-background:new 0 0 477.9 477.9;" xml:space="preserve">
<style type="text/css">
	.st0{fill:#404040;}
</style>
<g>
	<g>
		<path class="st0" d="M460.8,0H17.1C7.6,0,0,7.6,0,17.1v85.3c0,4.8,2.1,9.4,5.6,12.7l165,148.5v197.2c0,9.4,7.6,17.1,17.1,17.1
			c2.7,0,5.3-0.6,7.6-1.8l102.4-51.2c5.8-2.9,9.4-8.8,9.4-15.3v-146l165-148.5c3.6-3.2,5.7-7.9,5.6-12.7V17.1
			C477.9,7.6,470.2,0,460.8,0z M443.7,94.8l-165,148.5c-3.6,3.2-5.7,7.9-5.6,12.7v143.1l-68.3,34.1V256c0-4.8-2.1-9.4-5.6-12.7
			L34.1,94.8V34.1h409.6V94.8z"/>
	</g>
</g>
</svg>
