<?xml version="1.0" encoding="utf-8"?>
<!-- Generator: Adobe Illustrator 23.0.1, SVG Export Plug-In . SVG Version: 6.00 Build 0)  -->
<svg version="1.1" id="Layer_1" xmlns="http://www.w3.org/2000/svg" xmlns:xlink="http://www.w3.org/1999/xlink" x="0px" y="0px"
	 viewBox="0 0 141.7 141.7" style="enable-background:new 0 0 141.7 141.7;" xml:space="preserve">
<style type="text/css">
	.st0{fill:#EE5B49;}
	.st1{fill:#FCB135;}
</style>
<g>
	<path class="st0" d="M101.4,59l-6.2-9.3c-0.5-0.8-1.6-1.2-2.5-0.9c-1,0.3-1.6,1.2-1.6,2.2c0,4.5-0.7,8.9-2,13.2
		c-1.1-3.1-3.2-5.9-6-7.7c-5-3.3-6.4-9.9-3-15l3.9-5.9c0.5-0.7,0.5-1.6,0.1-2.3c-0.4-0.7-1.1-1.2-2-1.2c-4,0-7.7,0.8-11.2,2.2
		c-10.7,4.2-18.4,14.2-19.1,26.1c-0.7-2-1.1-4-1.1-6.2v-8.9c0-1-0.7-1.9-1.6-2.2c-1-0.3-2,0.1-2.5,0.9l-3,4.6
		c-5.6,8.5-8.6,18.3-8.6,28.4c0,17.9,14.6,32.5,32.5,32.5h7.1c17.9,0,32.6-14.6,32.6-32.5C106.9,70.6,105,64.4,101.4,59z"/>
	<path class="st1" d="M87.7,78.7l-3.4-5.1c-0.3-0.4-0.8-0.7-1.4-0.5c-0.5,0.2-0.9,0.6-0.9,1.2c0,2.4-0.4,4.9-1.1,7.3
		c-0.6-1.8-1.8-3.2-3.3-4.3c-2.8-1.9-3.5-5.5-1.7-8.2l2.2-3.2c0.3-0.4,0.3-0.8,0.1-1.3c-0.2-0.4-0.6-0.6-1.1-0.6
		c-2.2,0-4.3,0.4-6.2,1.2c-5.9,2.3-10.1,7.8-10.5,14.4c-0.4-1.1-0.6-2.2-0.6-3.4v-4.9c0-0.5-0.4-1.1-0.9-1.2
		c-0.5-0.2-1.1,0.1-1.4,0.5l-1.7,2.5c-3.1,4.7-4.7,10-4.7,15.6c0,9.9,8,17.9,17.9,17.9h3.9c9.9,0,17.9-8,17.9-17.9
		C90.7,85.1,89.6,81.6,87.7,78.7z"/>
</g>
</svg>
