<?xml version="1.0" encoding="utf-8"?>
<!-- Generator: Adobe Illustrator 23.0.1, SVG Export Plug-In . SVG Version: 6.00 Build 0)  -->
<svg version="1.1" id="Capa_1" xmlns="http://www.w3.org/2000/svg" xmlns:xlink="http://www.w3.org/1999/xlink" x="0px" y="0px"
	 viewBox="0 0 512 512" style="enable-background:new 0 0 512 512;" xml:space="preserve">
<style type="text/css">
	.st0{opacity:0.47;fill:url(#SVGID_1_);enable-background:new    ;}
	.st1{fill:#FFFFFF;}
	.st2{fill:#EE5A48;}
	.st3{fill:#FFB234;}
</style>
<g>
	
		<radialGradient id="SVGID_1_" cx="256" cy="424.9971" r="151.912" gradientTransform="matrix(1 0 0 -0.4 0 621.6989)" gradientUnits="userSpaceOnUse">
		<stop  offset="2.717173e-07" style="stop-color:#000000"/>
		<stop  offset="0.125" style="stop-color:#040404;stop-opacity:0.875"/>
		<stop  offset="0.2505" style="stop-color:#101010;stop-opacity:0.7495"/>
		<stop  offset="0.3762" style="stop-color:#242424;stop-opacity:0.6238"/>
		<stop  offset="0.5023" style="stop-color:#404040;stop-opacity:0.4977"/>
		<stop  offset="0.6286" style="stop-color:#656565;stop-opacity:0.3714"/>
		<stop  offset="0.7551" style="stop-color:#929292;stop-opacity:0.2449"/>
		<stop  offset="0.8793" style="stop-color:#C5C5C5;stop-opacity:0.1207"/>
		<stop  offset="1" style="stop-color:#FFFFFF;stop-opacity:0"/>
	</radialGradient>
	<ellipse class="st0" cx="256" cy="451.7" rx="206.2" ry="60.3"/>
	<g>
		<circle class="st1" cx="252.5" cy="161.7" r="118.5"/>
		<path class="st2" d="M256,0C168.2,0,96.8,71.4,96.8,159.2c0,29.7,8.2,58.6,23.9,83.6l124.5,203.8c2.1,3.4,5.3,5.6,9,6.1
			c5,0.8,10.6-1.3,13.5-6.4l124.9-205.7c14.9-24.4,22.6-52.8,22.6-81.5C415.2,71.4,343.8,0,256,0z M256,270.2
			c-62.2,0-111-50.3-111-111c0-61.1,49.9-111,111-111s111,49.9,111,111C367,219.6,318.9,270.2,256,270.2z"/>
	</g>
</g>
<path class="st2" d="M313.6,136.9L302,119.4c-1-1.5-3-2.3-4.8-1.7c-1.8,0.5-3.1,2.2-3.1,4.1c0,8.4-1.3,16.8-3.7,24.9
	c-2.1-5.9-6-11.1-11.4-14.6c-9.5-6.3-12.1-18.7-5.7-28.2l7.4-11.1c0.9-1.3,0.9-3,0.2-4.4c-0.7-1.4-2.1-2.2-3.8-2.2
	c-7.5,0-14.6,1.5-21.2,4.1c-20.1,8-34.7,26.7-36,49.3c-1.4-3.7-2.1-7.6-2.1-11.6v-16.8c0-1.9-1.3-3.6-3.1-4.1
	c-1.8-0.6-3.8,0.2-4.8,1.7l-5.7,8.6C193.6,133.4,188,151.9,188,171c0,33.8,27.5,61.3,61.3,61.3h13.3c33.8,0,61.4-27.5,61.4-61.3
	C324,158.8,320.4,147,313.6,136.9z"/>
<path class="st3" d="M287.7,174l-6.4-9.6c-0.6-0.8-1.6-1.3-2.6-0.9c-1,0.3-1.7,1.2-1.7,2.3c0,4.6-0.7,9.2-2,13.7
	c-1.1-3.3-3.3-6.1-6.3-8.1c-5.2-3.5-6.6-10.3-3.2-15.5l4.1-6.1c0.5-0.7,0.5-1.6,0.1-2.4c-0.4-0.8-1.2-1.2-2.1-1.2
	c-4.1,0-8.1,0.8-11.7,2.3c-11.1,4.4-19.1,14.7-19.8,27.2c-0.8-2-1.2-4.2-1.2-6.4v-9.2c0-1-0.7-2-1.7-2.3c-1-0.3-2.1,0.1-2.6,0.9
	l-3.2,4.8c-5.8,8.8-8.9,18.9-8.9,29.4c0,18.6,15.1,33.7,33.7,33.7h7.3c18.6,0,33.8-15.1,33.8-33.7C293.4,186,291.4,179.5,287.7,174z
	"/>
</svg>
