<?xml version="1.0" encoding="utf-8"?>
<!-- Generator: Adobe Illustrator 23.0.1, SVG Export Plug-In . SVG Version: 6.00 Build 0)  -->
<svg version="1.1" id="Layer_1" xmlns="http://www.w3.org/2000/svg" xmlns:xlink="http://www.w3.org/1999/xlink" x="0px" y="0px"
	 viewBox="0 0 141.73 141.73" style="enable-background:new 0 0 141.73 141.73;" xml:space="preserve">
<style type="text/css">
	.st0{fill:#C4D82E;}
	.st1{fill:#939598;}
</style>
<g>
	<path class="st0" d="M22.02,5v98.32h98.32V5L22.02,5z M62.4,77.2c-0.99,2.12-3.12,3.47-5.46,3.47H36.49
		c-2.08,0.03-3.79-1.64-3.82-3.72c-0.01-0.56,0.11-1.12,0.35-1.63L58.38,21.1c0.41-0.87,1.44-1.24,2.31-0.84
		c0.87,0.41,1.24,1.44,0.84,2.31l-1.5,3.24L36.23,76.79c-0.07,0.14-0.01,0.32,0.13,0.39c0.04,0.02,0.09,0.03,0.13,0.03h20.45
		c0.99,0,1.89-0.57,2.31-1.47c0.29-0.6,0.89-0.98,1.55-0.99c0.26,0,0.52,0.05,0.76,0.16C62.43,75.31,62.8,76.34,62.4,77.2L62.4,77.2
		z M107.94,88.77H87.77c-2.34,0-4.47-1.35-5.46-3.47l-4.06-8.74l-0.96-2.08c-0.42-0.9-1.32-1.47-2.31-1.47H49.53
		c-2.1,0.01-3.81-1.68-3.83-3.78c0-0.56,0.12-1.12,0.36-1.63L60.14,37.4l6.6-14.17c1.02-2.12,3.16-3.47,5.52-3.47h7.13
		c2.32,0.01,4.43,1.36,5.4,3.47l24.49,52.5c0.88,1.89,0.05,4.13-1.84,5.01c-0.51,0.24-1.07,0.36-1.63,0.35H94.72
		c-2.32-0.01-4.41-1.36-5.38-3.47l-5.03-10.79c-0.42-0.9-1.32-1.47-2.31-1.47H69.56c-0.99,0-1.89,0.57-2.31,1.47l-1.26,2.73h8.99
		c2.34,0,4.47,1.35,5.46,3.47l2.39,5.16l2.63,5.66c0.42,0.9,1.32,1.47,2.31,1.47h20.17c0.96,0,1.74,0.78,1.74,1.74
		c0,0.96-0.78,1.74-1.74,1.74L107.94,88.77z"/>
	<path class="st0" d="M82.13,61.81c2.33,0.01,4.46,1.36,5.45,3.47l5.03,10.79c0.4,0.87,1.28,1.42,2.23,1.42h11.08
		c0.1,0,0.19-0.05,0.24-0.13c0.05-0.09,0.05-0.2,0-0.29L81.7,24.57c-0.41-0.87-1.29-1.43-2.26-1.43h-7.13
		c-1.01,0-1.94,0.59-2.37,1.5L49.26,69c-0.06,0.1-0.06,0.22,0,0.32c0.06,0.1,0.16,0.15,0.28,0.15h12.6l2.02-4.19
		c0.99-2.12,3.12-3.47,5.46-3.47L82.13,61.81z"/>
</g>
<g>
	<path class="st1" d="M12.72,136.76l4.21-14.93l3.63,0.03l3.99,14.99h-1.65L21.86,133l-6.4-0.05l-1.1,3.81H12.72z M18.19,123.25
		l-2.34,8.18l5.66,0.05l-2.21-8.21L18.19,123.25z"/>
	<path class="st1" d="M28.78,123.4v-1.49l10.81,0.08v1.49l-4.57-0.04l-0.1,13.47h-1.64l0.1-13.47L28.78,123.4z"/>
	<path class="st1" d="M47.66,131.29l-0.05,5.73h-1.67l0.12-14.97l5.53,0.04c1.59,0,2.77,0.39,3.57,1.13
		c0.8,0.74,1.19,1.87,1.17,3.45c-0.02,2.31-0.94,3.75-2.78,4.32l2.81,6.08h-1.83l-2.67-5.74L47.66,131.29z M51.56,129.85
		c2.03,0,3.05-1.04,3.07-3.12s-1-3.14-3.05-3.17l-3.87-0.03l-0.05,6.29L51.56,129.85z"/>
	<path class="st1" d="M93.5,122.41h1.73l-4.03,14.93l-3.74-0.03l-3.8-14.97h1.73l3.34,13.51h1.21L93.5,122.41z"/>
	<path class="st1" d="M99.87,137.42l4.21-14.93l3.63,0.03l3.99,14.97h-1.64l-1.05-3.86l-6.39-0.05l-1.11,3.84H99.87z M105.33,123.93
		l-2.34,8.17l5.66,0.05l-2.2-8.21L105.33,123.93z"/>
	<path class="st1" d="M118.39,137.56l0.12-14.97l3.12,0.03l5.61,13.53h0.47l0.1-13.49h1.64l-0.11,14.97h-3.05l-5.72-13.55h-0.41
		l-0.1,13.49L118.39,137.56z"/>
	<path class="st0" d="M77.89,127.63c-1.08-4.08-5.26-6.51-9.34-5.44c-2.84,0.75-5,3.07-5.55,5.96
		C67.17,124.36,73.47,124.14,77.89,127.63z"/>
	<path class="st0" d="M70.74,135.18c-1.14-0.04-2.2,0.6-2.71,1.62c1.75,0.6,3.65,0.54,5.36-0.15
		C72.84,135.72,71.82,135.16,70.74,135.18z"/>
	<path class="st0" d="M70.74,131.22c-2.71,0-5.03,1.4-5.97,3.41c0.44,0.5,0.94,0.94,1.49,1.31c1.29-2.48,4.35-3.44,6.82-2.15
		c0.83,0.43,1.53,1.09,2.01,1.89c0.54-0.4,1.02-0.88,1.44-1.4C75.49,132.46,73.29,131.22,70.74,131.22z"/>
	<path class="st0" d="M70.74,127.12c-3.09-0.05-5.99,1.46-7.71,4.03c0.12,0.56,0.3,1.11,0.54,1.63c3.05-3.97,8.75-4.71,12.71-1.66
		c0.48,0.37,0.92,0.79,1.32,1.24c0.23-0.57,0.39-1.17,0.47-1.78C76.3,128.36,73.59,127.08,70.74,127.12z"/>
</g>
</svg>
