<?xml version="1.0" encoding="utf-8"?>
<!-- Generator: Adobe Illustrator 23.0.1, SVG Export Plug-In . SVG Version: 6.00 Build 0)  -->
<svg version="1.1" id="Layer_1" xmlns="http://www.w3.org/2000/svg" xmlns:xlink="http://www.w3.org/1999/xlink" x="0px" y="0px"
	 viewBox="0 0 459.4 411" style="enable-background:new 0 0 459.4 411;" xml:space="preserve">
<style type="text/css">
	.st0{fill:#E62F39;}
	.st1{fill:#505DC5;}
</style>
<g>
	<g>
		<path class="st0" d="M232.5,25.8c2,6.8,3.6,12.9,5.7,18.9c5.9,16.3,16.8,29.2,28.7,41.2c7.5,7.7,13.3,16.2,15.7,26.8
			c3.1,13.7-4.7,24.3-13.4,31.1c-0.9,0.7-2.5,0.8-3.8,0.8c-23.9,0.1-47.9,0.1-71.8,0c-1.5,0-3.6-0.6-4.5-1.7
			c-12.5-15.1-10.7-46.6,3.6-61c1.8,9.5,3.2,19,12.7,25.6c-3.8-13-5.5-25.2-0.9-37.3c2.4-6.2,5.6-12.2,9.1-17.8c0,7-0.6,14.1,0.2,21
			c0.8,7.3,5.5,12.7,12.4,17.8C218.7,68.1,217.5,46.3,232.5,25.8z"/>
		<path class="st1" d="M229.9,236.8c-4.3-8.3-8.2-16.5-12.6-24.3c-4.7-8.5-11.7-15-20.1-20c-2.3-1.4-4.5-3.4-5.9-5.7
			c-2.7-4.5-0.4-8.6,4.9-8.9c2.9-0.2,5.8,0,8.8,0c18.6,0,37.2,0,55.8,0c3.1,0,6.5-0.1,7.7,3.5c1.3,3.5-0.5,6.4-3.1,8.9
			c-0.5,0.5-1,0.9-1.6,1.2c-15.4,8.1-23.7,22-30.4,37.1C232.3,231.3,231.1,234,229.9,236.8z"/>
		<path class="st1" d="M229.6,152c14.9,0,29.8,0,44.6,0c5.5,0,7.7,1.9,7.9,6.7c0.1,4.2-3.2,7.8-7.8,7.8c-29.8,0.1-59.5,0.1-89.3,0
			c-5.4,0-8.7-4.3-7.7-9.3c0.7-3.8,3.1-5.2,6.8-5.2C199.3,152.1,214.4,152,229.6,152L229.6,152z"/>
		<path class="st1" d="M384.8,266.1c-11.7-11.7-29.2-11.3-40.4,0.9c-10.1,11-6.7,28.3,6.9,34.4c3.5,1.5,7.4,1.9,11.1,3.1
			c1.3,0.4,2.4,1.5,3.6,2.2c-1.1,0.8-2.2,2.1-3.3,2.2c-9.6,0.6-22-3.1-26.3-15.2c-5.6-15.9,2-32.4,17.9-38.3c2.4-0.9,3.3-1.8,3-4.5
			c-4.4-33.6-28.3-52.7-54.2-54.2c-22.4-1.4-41.8,5.2-55.4,24.2c-6.6,9.3-11,19.7-14,30.6c-0.6,2-1,3.6-3.8,3.6
			c-2.6,0-3.3-1.3-4-3.4c-1.5-4.8-3.1-9.6-5-14.3c-12.1-29.6-36.1-44-67.5-40.4c-24.1,2.8-47.6,21.4-51.1,55
			c-0.1,0.9,1.4,2.6,2.5,3.1c13.9,5.5,20.8,16.2,19.8,31.1c-1,14.4-13.4,24.7-27.7,22.7c-1.2-0.2-2.3-1.6-3.5-2.4
			c1.1-0.7,2.2-1.6,3.5-1.9c2.8-0.8,5.8-0.9,8.5-1.9c14.1-4.9,19.7-20.4,11.9-32.7c-8.1-12.6-26.3-16.3-38.3-7.5
			c-12.5,9.1-16,21.9-14.4,36.6C67,321,87.8,334.9,109,328.7c8.2-2.4,14.7-7.2,20.5-13.3c2.9,1.6,5.7,3.1,8.5,4.6
			c7.4,3.7,15.1,6.3,23.4,5c4.2-0.7,7.5,0.3,10.9,2.4c4.3,2.7,3.1,6.5,1.7,10.4c10.9-3.9,16-15.9,10.9-26.3
			c-1.9-3.9-2.2-7.1-1.2-11.2c3.5-14.7-2.2-26.7-15-31.8c-4.5-1.8-9.4-2.7-14.1-4c0,0.2-0.1,0.4-0.1,0.6c2,1.7,4.2,3.1,6,5
			c6,6.5,4.9,14.6-2.4,19.4c-7.7,5.1-18.9,2.2-24.8-6.3c-11.1-16-7-41.1,8.5-52.7c19.1-14.3,43.5-8.4,53.2,13.3
			c3.1,6.8,4.9,14.3,6.9,21.6c0.5,1.7-0.3,4.2-1.4,5.6c-4.9,6.6-7.8,14-8,22.1c-0.5,16.3,9.4,30.8,24.7,36.5
			c15,5.6,32.1,0.9,42.2-11.5c10-12.3,11.8-30.4,2.5-43.4c-4.8-6.6-4.2-12.1-2-18.7c0.5-1.4,0.8-2.8,1.3-4.2c3-8.2,6.4-16.1,13.2-22
			c11.1-9.4,31.1-8.9,43.8,0.9c15,11.6,19.1,35.5,8.9,51.5c-4.3,6.7-10.5,10.1-18.4,9.7c-5.8-0.3-10.2-3.3-12.4-8.6
			c-2.3-5.4-0.1-10.2,3.8-14.1c1.5-1.5,3.4-2.7,5.6-4.4c-3.3,0.6-6.1,1.1-8.8,1.7c-16.8,4.3-24.6,16.2-21.1,33.2
			c0.9,4.5,0.8,8.1-1.3,12.4c-4.6,9.7,0.3,23.2,10.7,25.4c-1.8-7.8,3.3-14.1,10.8-12.7c8.5,1.5,16.4-0.4,23.9-4
			c3.4-1.6,6.8-3.5,10-5.2c2.8,2.4,5.1,4.8,7.8,6.7c17.8,13.3,39.8,9.8,52-8.1C398.8,300.5,396.6,277.9,384.8,266.1z M230.1,307.8
			c-7.5,0-13.7-6-13.9-13.5c-0.1-7.3,6.1-13.7,13.6-13.8c7.5-0.1,13.6,5.9,13.7,13.5C243.6,301.7,237.6,307.8,230.1,307.8z"/>
	</g>
	<g>
		<g>
			<path class="st1" d="M75.3,394.7c-0.9,0-1.7,0-2.7-0.1c-0.9-0.1-1.8-0.2-2.7-0.5c-0.9-0.2-1.7-0.5-2.6-0.9
				c-0.8-0.4-1.6-0.9-2.3-1.6c-0.7-0.6-1.3-1.3-1.8-2.1c-0.5-0.8-0.9-1.6-1.3-2.4c-0.3-0.8-0.6-1.7-0.8-2.7
				c-0.2-0.9-0.3-1.9-0.3-2.8c0-2,0.3-4.1,1-6.2c0.7-2.1,1.6-4.1,2.9-6l4.2,3c-0.3,0.3-0.5,0.8-0.9,1.5c-0.3,0.7-0.7,1.4-1,2.3
				c-0.3,0.9-0.6,1.8-0.8,2.7c-0.2,1-0.3,1.9-0.3,2.8c0,1,0.2,2,0.7,2.8c0.5,0.8,1.1,1.6,1.9,2.2c0.8,0.6,1.7,1.1,2.7,1.4
				c1,0.3,2.1,0.5,3.2,0.5h0.2c0.8,0,1.6-0.1,2.4-0.2c0.8-0.2,1.6-0.4,2.4-0.7c0.8-0.3,1.4-0.7,2.1-1.1c0.6-0.4,1.2-1,1.6-1.5
				c0.4-0.6,0.8-1.2,1-1.8c0.2-0.6,0.3-1.1,0.3-1.7v-0.3c0-0.5-0.1-1.1-0.3-1.8c-0.2-0.7-0.4-1.4-0.6-2.1c-0.2-0.7-0.5-1.4-0.8-2.1
				c-0.3-0.7-0.6-1.3-0.8-1.9c-0.3-0.6-0.5-1.1-0.7-1.5c-0.2-0.4-0.3-0.7-0.4-0.8l5.1-2.8c0,0,0.1,0.3,0.3,0.7
				c0.2,0.4,0.4,0.9,0.7,1.5c0.3,0.6,0.5,1.3,0.8,2.2c0.3,0.8,0.6,1.7,0.8,2.5c0.3,0.9,0.5,1.8,0.7,2.7c0.2,0.9,0.3,1.8,0.4,2.6
				c0,0.1,0,0.2,0,0.4v0.4c0,1.1-0.1,2.2-0.4,3.3c-0.3,1.1-0.6,2.2-1.2,3.2c-0.5,1-1.2,1.9-1.9,2.8c-0.8,0.9-1.7,1.6-2.8,2.2
				c-1.1,0.6-2.3,1.1-3.6,1.5C78.5,394.5,77,394.7,75.3,394.7z M75.3,363.7l4.2,4.2l-4.2,4.2l-4.2-4.2L75.3,363.7z"/>
			<path class="st1" d="M92.7,381.8c0.1-1,0.1-2.1,0.2-3.2c0.1-1.1,0.1-2.2,0.2-3.3c0-1.1,0.1-2.1,0.1-3.1v-0.8c0-0.7,0-1.4,0-2
				c-0.1-1.8-0.1-3.3-0.2-4.7c-0.1-1.3-0.1-2.5-0.2-3.6c-0.1-1-0.1-1.9-0.2-2.7c-0.1-0.8-0.1-1.5-0.2-2.1c-0.1-0.7-0.2-1.3-0.2-1.8
				c-0.1-0.6-0.2-1.2-0.3-1.8l5.8-1.9c0.3,1.7,0.5,3.4,0.7,5.1c0.2,1.7,0.3,3.3,0.4,4.9c0.1,1.6,0.1,3,0.2,4.3c0,1.3,0,2.5,0,3.4
				c0,0.9,0,1.8,0,2.8c0,1,0,2,0,3.1c0,1.1,0,2.2-0.1,3.3c0,1.1-0.1,2.2-0.2,3.2L92.7,381.8z"/>
			<path class="st1" d="M115.8,381.8c-0.3,0-0.7,0-1.2-0.1c-0.5,0-1-0.2-1.6-0.4c-0.3,1.5-0.8,3-1.5,4.4c-0.8,1.4-1.7,2.7-2.8,3.9
				c-1.1,1.2-2.4,2.3-3.8,3.4s-2.9,1.9-4.6,2.8l-3.4-4.7c0.9-0.4,1.8-0.9,2.7-1.5c0.9-0.5,1.8-1.1,2.6-1.7c0.8-0.6,1.6-1.2,2.3-1.9
				c0.7-0.6,1.3-1.3,1.8-2c0.5-0.7,0.9-1.4,1.2-2.1s0.4-1.4,0.4-2.2c0,0,0-0.1,0-0.2c0-0.1,0-0.2,0-0.2v-0.2l0,0v0.1
				c-0.1-0.7-0.2-1.4-0.4-2.1c-0.2-0.7-0.4-1.3-0.6-2s-0.5-1.4-0.9-2.2c-0.3-0.8-0.7-1.6-1.1-2.5l5.4-2.4c0.5,1.5,1,2.7,1.4,3.7
				c0.4,1,0.9,1.8,1.3,2.4c0.4,0.6,0.8,1,1.3,1.3c0.4,0.2,0.9,0.4,1.3,0.4h0.1c0.4,0,0.8,0.1,1.2,0.2c0.4,0.2,0.7,0.4,0.9,0.6
				c0.3,0.3,0.5,0.6,0.6,0.9c0.2,0.4,0.2,0.7,0.2,1.1c0,0.4-0.1,0.8-0.2,1.2c-0.2,0.4-0.4,0.7-0.6,0.9s-0.6,0.5-0.9,0.6
				C116.6,381.7,116.2,381.8,115.8,381.8z"/>
			<path class="st1" d="M111.8,378.8c0-0.4,0.1-0.8,0.2-1.2c0.2-0.4,0.4-0.7,0.6-0.9c0.3-0.3,0.6-0.5,0.9-0.6
				c0.4-0.1,0.8-0.2,1.2-0.2h3c0.6,0,1.2,0,1.9-0.1c0.7,0,1.3-0.1,1.9-0.2c0.6-0.1,1.2-0.3,1.7-0.5c0.5-0.2,0.9-0.4,1.1-0.7
				c0.1-0.2,0.2-0.5,0.2-0.9c0-0.5-0.1-1.2-0.4-1.9c-0.3-0.7-0.6-1.5-0.9-2.2c-0.4-0.8-0.7-1.5-1.1-2.2c-0.4-0.7-0.7-1.3-0.9-1.7
				l5.3-2.6c0.4,0.7,0.8,1.5,1.1,2.4c0.4,0.9,0.7,1.9,1,2.8c0.3,1,0.5,1.9,0.7,2.8c0.2,0.9,0.3,1.7,0.3,2.4c0,1.3-0.2,2.4-0.7,3.5
				c-0.5,1.2-1.2,2.1-2.2,2.9c-0.9,0.8-2,1.3-3.3,1.7c-0.4,0.1-0.8,0.2-1.4,0.2c-0.6,0.1-1.1,0.1-1.7,0.1c-0.6,0-1.1,0-1.6,0.1
				s-0.9,0-1.2,0h-2.9c-0.4,0-0.8-0.1-1.2-0.2c-0.4-0.1-0.7-0.4-0.9-0.6c-0.3-0.3-0.5-0.6-0.6-0.9
				C111.9,379.6,111.8,379.2,111.8,378.8z M129.9,387.9l-3.6,3.6l-3.6-3.6l-3.5,3.5l-3.6-3.6l3.6-3.6l3.6,3.6l3.5-3.5L129.9,387.9z"
				/>
			<path class="st1" d="M133,381.8c0.1-1,0.1-2.1,0.2-3.2c0.1-1.1,0.1-2.2,0.2-3.3c0-1.1,0.1-2.1,0.1-3.1v-0.8c0-0.7,0-1.4,0-2
				c-0.1-1.8-0.1-3.3-0.2-4.7c-0.1-1.3-0.1-2.5-0.2-3.6c-0.1-1-0.1-1.9-0.2-2.7c-0.1-0.8-0.1-1.5-0.2-2.1c-0.1-0.7-0.2-1.3-0.2-1.8
				c-0.1-0.6-0.2-1.2-0.3-1.8l5.8-1.9c0.3,1.7,0.5,3.4,0.7,5.1c0.2,1.7,0.3,3.3,0.4,4.9c0.1,1.6,0.1,3,0.2,4.3c0,1.3,0,2.5,0,3.4
				c0,0.9,0,1.8,0,2.8c0,1,0,2,0,3.1c0,1.1,0,2.2-0.1,3.3c0,1.1-0.1,2.2-0.2,3.2L133,381.8z"/>
			<path class="st1" d="M161.6,368c0.5,1.3,0.9,2.7,1.2,4c0.2,0.6,0.3,1.1,0.5,1.7c0.1,0.6,0.3,1.2,0.4,1.8c0.1,0.6,0.2,1.2,0.3,1.8
				c0.1,0.6,0.1,1.1,0.1,1.6c0,1.2-0.2,2.3-0.5,3.4c-0.3,1.1-0.8,2.2-1.3,3.2c-0.6,1.1-1.3,2.1-2.1,3s-1.7,1.9-2.7,2.7
				c-1,0.8-2,1.6-3.1,2.4c-1.1,0.7-2.3,1.4-3.4,2l-3.4-4.7c0.9-0.4,1.8-1,2.7-1.5c0.9-0.6,1.8-1.2,2.6-1.8c0.8-0.6,1.6-1.3,2.4-2
				c0.7-0.7,1.4-1.4,1.9-2.2c0.5-0.7,1-1.5,1.3-2.2c0.3-0.8,0.5-1.5,0.5-2.2c0-0.5-0.1-1.1-0.2-1.7c-0.1-0.6-0.3-1.3-0.6-2
				c-0.2-0.7-0.5-1.5-0.9-2.2c-0.3-0.8-0.7-1.6-1.1-2.5L161.6,368z M158.3,356.6l4.2,4.2l-4.2,4.2l-4.2-4.2L158.3,356.6z"/>
			<path class="st1" d="M176.2,381.8c-1.5,0-2.9-0.2-4-0.6c-1.1-0.4-2-1-2.8-1.8c-0.5-0.5-0.9-1-1.2-1.6c-0.3-0.5-0.5-1.1-0.6-1.6
				c-0.1-0.5-0.2-1-0.2-1.5c0-0.5,0-0.9,0-1.2v-0.3c0-0.5,0-1.1,0-2c0-0.9,0-1.9,0-3.1s0-2.5,0-3.9c0-1.4,0-2.8-0.1-4.2
				c-0.1-1.4-0.1-2.8-0.2-4.1c-0.1-1.3-0.3-2.4-0.4-3.4l5.6-1.7c0.2,0.8,0.3,1.8,0.4,2.9c0.1,1.1,0.2,2.3,0.3,3.5
				c0.1,1.2,0.1,2.5,0.2,3.7c0,1.2,0.1,2.4,0.1,3.4v0.4c0,0.8,0,1.6-0.1,2.4c-0.1,0.9-0.2,1.8-0.2,2.6c0,0.4,0,0.8,0,1.2
				c0,0.4,0,0.9,0.1,1.3c0,0.8,0.2,1.6,0.5,2.4c0.1,0.3,0.3,0.5,0.4,0.7c0.2,0.2,0.4,0.3,0.6,0.3c0.2,0.1,0.5,0.1,0.7,0.1
				c0.3,0,0.6,0,0.9,0h0.2c0.4,0,0.8,0.1,1.1,0.2c0.4,0.2,0.7,0.4,0.9,0.6c0.3,0.3,0.5,0.6,0.6,0.9c0.2,0.4,0.2,0.7,0.2,1.1
				c0,0.4-0.1,0.8-0.2,1.2c-0.2,0.4-0.4,0.7-0.6,0.9c-0.3,0.3-0.6,0.5-0.9,0.6C177,381.7,176.6,381.8,176.2,381.8z"/>
			<path class="st1" d="M173.1,378.8c0-0.4,0.1-0.8,0.2-1.2c0.1-0.4,0.4-0.7,0.6-0.9c0.3-0.3,0.6-0.5,1-0.6c0.4-0.1,0.8-0.2,1.3-0.2
				h2c0.7,0,1.4,0,2.2,0c0.8,0,1.6-0.1,2.4-0.2s1.4-0.3,2-0.5c0.6-0.2,1-0.5,1.3-0.9c0.4-0.6,0.6-1.2,0.6-2c0-0.3,0-0.5-0.1-0.8
				c0-0.3-0.1-0.5-0.2-0.8c-0.1-0.3-0.3-0.7-0.6-1.1c-0.3-0.4-0.6-0.9-1.1-1.5c-0.4-0.5-0.9-1.1-1.5-1.7c-0.6-0.6-1.2-1.2-1.8-1.8
				c-0.6-0.6-1.3-1.2-2-1.8c-0.7-0.6-1.4-1.2-2.1-1.8l0.6-5.1l15.7-7l2.3,5l-12.4,5.8c0.6,0.4,1.2,0.9,1.9,1.5
				c0.7,0.6,1.3,1.2,1.9,1.9c0.6,0.7,1.2,1.4,1.7,2.2c0.5,0.8,1,1.6,1.4,2.4c0.4,0.8,0.7,1.6,1,2.5c0.2,0.8,0.3,1.6,0.3,2.3v0.1
				c0,0.9-0.1,1.8-0.4,2.6c-0.2,0.8-0.5,1.5-0.9,2.2c-1.3,2.3-3.4,3.7-6.4,4.3l0,0c-0.3,0.1-0.7,0.1-1,0.1s-0.6,0-0.9,0l-6.1,0
				c-0.5,0-0.9-0.1-1.3-0.2c-0.4-0.1-0.7-0.4-1-0.6c-0.3-0.3-0.5-0.6-0.6-0.9C173.2,379.6,173.1,379.2,173.1,378.8z M193.1,347
				l-15.5,6.6l0.2-2.8l14.3-6L193.1,347z"/>
			<path class="st1" d="M222,394c-1.2,0-2.4-0.1-3.6-0.2c-1.2-0.1-2.4-0.4-3.6-0.7c-1.1-0.4-2.2-0.9-3.2-1.5c-1-0.7-1.8-1.5-2.5-2.6
				c-0.6-1-1.1-2.1-1.5-3.3c-0.3-1.2-0.5-2.6-0.5-4.1c0-1.1,0-2.1,0.1-3.1c0.1-1,0.2-2,0.4-3c0.2-1,0.5-2,0.8-3
				c0.3-1,0.7-2.1,1.2-3.2l4.8,2c-0.4,0.9-0.7,1.7-0.9,2.4c-0.3,0.7-0.5,1.4-0.6,2c-0.2,0.6-0.3,1.1-0.4,1.6c-0.1,0.5-0.2,1-0.2,1.4
				s-0.1,0.9-0.1,1.3c0,0.4,0,0.9,0,1.4c0,0.9,0.1,1.7,0.4,2.4c0.3,0.7,0.7,1.3,1.2,1.7c0.5,0.5,1.1,0.9,1.8,1.2
				c0.7,0.3,1.4,0.5,2.1,0.7c0.7,0.2,1.5,0.3,2.2,0.3c0.7,0.1,1.4,0.1,2.1,0.1c0.3,0,0.8,0,1.4-0.1c0.6,0,1.3-0.1,2.1-0.2
				c0.8-0.1,1.5-0.2,2.3-0.4c0.8-0.2,1.5-0.4,2.2-0.6c0.6-0.3,1.2-0.6,1.6-0.9c0.4-0.3,0.6-0.7,0.6-1.2c0,0-0.1-0.1-0.3-0.3
				c-0.2-0.1-0.5-0.3-0.8-0.4c-0.4-0.2-0.8-0.4-1.2-0.6c-0.5-0.2-1-0.4-1.5-0.6h0c-0.6-0.2-1.2-0.3-1.9-0.5
				c-0.7-0.1-1.3-0.2-1.9-0.3c-0.1,0-0.2,0-0.4-0.1c-0.2,0-0.3-0.1-0.5-0.1c-0.2,0-0.3-0.1-0.5-0.1c-0.2,0-0.3-0.1-0.4-0.1l0.8-5.7
				h15c0.4,0,0.8,0.1,1.1,0.2c0.4,0.2,0.7,0.4,0.9,0.6c0.3,0.3,0.5,0.6,0.6,0.9c0.2,0.4,0.2,0.8,0.2,1.2c0,0.4-0.1,0.8-0.2,1.2
				c-0.2,0.4-0.4,0.7-0.6,0.9c-0.3,0.3-0.6,0.5-0.9,0.6c-0.4,0.2-0.7,0.2-1.1,0.2h-2.1c0.3,0.5,0.5,1,0.6,1.5
				c0.1,0.5,0.2,0.9,0.2,1.3c-0.1,1.2-0.4,2.2-0.9,3.1c-0.5,0.9-1.2,1.7-2.1,2.4c-0.8,0.7-1.8,1.3-2.8,1.8c-1.1,0.5-2.1,0.9-3.3,1.2
				c-1.1,0.3-2.2,0.5-3.3,0.7C223.9,393.9,222.9,394,222,394z"/>
			<path class="st1" d="M235.7,378.8c0-0.4,0.1-0.8,0.2-1.2c0.2-0.4,0.4-0.7,0.6-0.9c0.3-0.3,0.6-0.5,0.9-0.6
				c0.4-0.2,0.8-0.2,1.2-0.2h1.3c0.2,0,0.3,0.1,0.4,0.1c0.3,0,0.5-0.1,0.7-0.2c0.4-0.2,0.7-0.5,0.9-0.8c0.3-0.4,0.5-0.8,0.6-1.3
				c0.2-0.5,0.2-1,0.2-1.4c0-0.4,0-0.7,0-1.2c0-0.8,0-1.8-0.1-2.9c0-1.6-0.1-3.6-0.1-5.8c0-2-0.1-3.9-0.1-5.5c0-1.7-0.1-3.3-0.2-4.9
				l5.8-1.1c0.1,0.8,0.2,1.7,0.2,2.6c0.1,0.9,0.1,1.9,0.1,2.9c0,1,0.1,2.1,0.1,3.1c0,1.1,0,2.2,0,3.2c0,1.7,0,3.4-0.1,5.2
				c0,0.9,0,1.8-0.1,2.7s0,1.9,0,2.8c0,0.2,0,0.5,0.1,0.8c0.1,0.3,0.2,0.6,0.3,0.9h0c0.1,0.2,0.4,0.4,0.7,0.6
				c0.3,0.2,0.7,0.2,1.3,0.2c0.4,0,0.8,0.1,1.2,0.2c0.4,0.2,0.7,0.4,0.9,0.6c0.3,0.3,0.5,0.6,0.6,0.9c0.2,0.4,0.2,0.8,0.2,1.2
				c0,0.4-0.1,0.8-0.2,1.2c-0.2,0.4-0.4,0.7-0.6,0.9c-0.3,0.3-0.6,0.5-0.9,0.6c-0.4,0.2-0.7,0.2-1.2,0.2h-0.2c-1,0-2-0.2-2.8-0.6
				c-0.9-0.4-1.6-0.9-2.2-1.5c-0.7,0.6-1.5,1.2-2.4,1.5c-0.9,0.4-1.8,0.5-2.7,0.6h-2.2c-0.4,0-0.8-0.1-1.2-0.2
				c-0.4-0.1-0.7-0.4-0.9-0.6c-0.3-0.3-0.5-0.6-0.6-0.9C235.8,379.6,235.7,379.2,235.7,378.8z"/>
			<path class="st1" d="M248.2,378.8c0-0.4,0.1-0.8,0.2-1.1c0.1-0.4,0.4-0.7,0.6-0.9c0.3-0.3,0.6-0.5,0.9-0.6
				c0.4-0.2,0.7-0.2,1.2-0.3c0.8,0,1.6-0.2,2.2-0.5c0.6-0.3,1.2-0.7,1.6-1.3c0.5-0.5,0.9-1.1,1.3-1.8c0.4-0.6,0.7-1.3,1.1-1.9v0
				c0.3-0.7,0.7-1.3,1-2c0.4-0.7,0.8-1.3,1.2-1.8c0.7-0.8,1.4-1.4,2.3-1.8c0.8-0.4,1.7-0.6,2.7-0.6c1.1,0,2.1,0.2,3.1,0.7
				c0.9,0.5,1.8,1.1,2.5,2c0.6,0.7,1,1.4,1.4,2.3c0.4,0.9,0.6,1.8,0.7,2.8v0c0.1,0.5,0.1,1,0.1,1.7c0,0.7-0.1,1.3-0.2,2
				c-0.1,0.6-0.3,1.3-0.5,1.8c-0.4,1.1-1,1.9-1.8,2.6c-0.8,0.7-1.6,1.2-2.5,1.5c-0.3,0.1-0.6,0.1-0.9,0.2c-0.3,0-0.6,0-0.9,0
				c-0.6,0-1.2-0.1-1.8-0.2c-0.6-0.1-1.3-0.3-1.9-0.6c-0.3-0.1-0.5-0.2-0.8-0.4c-0.3-0.2-0.6-0.3-1-0.5c-0.3-0.2-0.7-0.4-1-0.6
				c-0.3-0.2-0.7-0.4-0.9-0.6c-0.5,0.5-1,0.9-1.5,1.3c-0.5,0.4-1,0.7-1.6,1c-0.5,0.3-1.1,0.5-1.8,0.6c-0.6,0.1-1.3,0.2-2,0.2
				c-0.4,0-0.8-0.1-1.2-0.2c-0.4-0.2-0.7-0.4-0.9-0.6c-0.3-0.3-0.5-0.6-0.6-0.9C248.2,379.6,248.2,379.2,248.2,378.8z M261.4,373.9
				c0.4,0.3,0.8,0.5,1.4,0.7c0.5,0.2,1.1,0.4,1.6,0.6c0.5,0.2,1,0.3,1.5,0.5c0.4,0.1,0.8,0.2,1,0.2c0.1,0,0.1,0,0.2,0
				c0.1,0,0.1,0,0.2,0c0.1,0,0.3-0.2,0.4-0.6c0.1-0.3,0.2-0.6,0.2-1.1c0-0.1,0-0.2,0-0.4c0-0.4-0.1-0.8-0.3-1.3
				c-0.2-0.5-0.5-0.9-0.9-1.3c-0.4-0.4-0.8-0.8-1.2-1.1c-0.5-0.3-0.9-0.4-1.4-0.4c-0.2,0-0.4,0.3-0.7,0.8c-0.3,0.5-0.7,1.2-1.2,2.2
				v0L261.4,373.9z"/>
			<path class="st1" d="M325.6,381.8c-2.1,0-3.8-0.3-5.2-1c-1.4-0.7-2.6-1.8-3.5-3.4c-1.8,1.5-3.9,2.6-6.4,3.4
				c-2.5,0.7-5.5,1.1-8.8,1.1c-2,0-3.9-0.1-5.6-0.4c-1.8-0.2-3.4-0.6-4.9-1.1c-1.5-0.5-2.7-1.1-3.8-1.9c-1.1-0.7-2-1.6-2.6-2.6
				c-0.4-0.7-0.7-1.4-0.8-2.3c-0.1-0.6-0.2-1.3-0.2-2c0-0.2,0-0.5,0-0.8c0.1-1,0.3-2.1,0.6-3.2s0.8-2.3,1.4-3.6l4.5,2.6
				c-0.3,0.5-0.5,1-0.7,1.4c-0.2,0.5-0.4,0.9-0.5,1.4c-0.1,0.5-0.2,1-0.2,1.5c0,0,0,0,0,0.1c0,0.6,0.1,1.2,0.3,1.9
				c0.3,0.5,0.9,1,1.7,1.4c0.8,0.4,1.8,0.7,2.9,0.9c1.1,0.2,2.4,0.4,3.7,0.5c1.4,0.1,2.8,0.2,4.2,0.2c1.3,0,2.6,0,3.7-0.1
				c1.2-0.1,2.3-0.2,3.3-0.4c1-0.2,1.9-0.5,2.7-0.8c0.8-0.3,1.5-0.7,2.1-1.2c0.5-0.4,1-0.9,1.3-1.4s0.6-1.1,0.9-1.6
				c0.2-0.6,0.4-1.2,0.6-1.8c0.2-0.6,0.3-1.3,0.5-1.9l5.2,1.3l-0.8,4c-0.1,0.2-0.1,0.4-0.1,0.7c0,0.3,0.1,0.6,0.2,0.9
				c0.2,0.5,0.4,0.9,0.9,1.3c0.4,0.4,0.9,0.6,1.6,0.8s1.4,0.3,2.2,0.3c0.4,0,0.8,0.1,1.2,0.2c0.4,0.2,0.7,0.4,0.9,0.6
				c0.3,0.3,0.5,0.6,0.6,0.9c0.2,0.4,0.2,0.8,0.2,1.2c0,0.4-0.1,0.8-0.2,1.2c-0.2,0.4-0.4,0.7-0.6,0.9c-0.3,0.3-0.6,0.5-0.9,0.6
				c-0.4,0.2-0.7,0.2-1.2,0.2H325.6z M310.2,362.2l-3.6,3.6l-3.6-3.6l-3.5,3.5l-3.6-3.6l3.6-3.6l3.6,3.6l3.5-3.5L310.2,362.2z"/>
			<path class="st1" d="M322.4,378.8c0-0.4,0.1-0.8,0.2-1.2c0.1-0.4,0.4-0.7,0.6-0.9c0.3-0.3,0.6-0.5,1-0.6c0.4-0.1,0.8-0.2,1.3-0.2
				h2c0.7,0,1.4,0,2.2,0c0.8,0,1.6-0.1,2.4-0.2c0.8-0.1,1.4-0.3,2-0.5c0.6-0.2,1-0.5,1.3-0.9c0.4-0.6,0.6-1.2,0.6-2
				c0-0.3,0-0.5-0.1-0.8c0-0.3-0.1-0.5-0.2-0.8c-0.1-0.3-0.3-0.7-0.6-1.1c-0.3-0.4-0.6-0.9-1.1-1.5c-0.4-0.5-0.9-1.1-1.5-1.7
				c-0.6-0.6-1.2-1.2-1.8-1.8s-1.3-1.2-2-1.8c-0.7-0.6-1.4-1.2-2.1-1.8l0.6-5.1l15.7-7l2.3,5l-12.4,5.8c0.6,0.4,1.2,0.9,1.9,1.5
				c0.6,0.6,1.3,1.2,1.9,1.9c0.6,0.7,1.2,1.4,1.7,2.2c0.5,0.8,1,1.6,1.4,2.4c0.4,0.8,0.7,1.6,1,2.5c0.2,0.8,0.3,1.6,0.3,2.3v0.1
				c0,0.9-0.1,1.8-0.4,2.6c-0.2,0.8-0.5,1.5-0.9,2.2c-1.3,2.3-3.4,3.7-6.4,4.3l0,0c-0.3,0.1-0.7,0.1-1,0.1s-0.6,0-0.9,0l-6.1,0
				c-0.5,0-0.9-0.1-1.3-0.2c-0.4-0.1-0.7-0.4-1-0.6c-0.3-0.3-0.5-0.6-0.6-0.9C322.5,379.6,322.4,379.2,322.4,378.8z"/>
			<path class="st1" d="M358.8,381.8c-0.3,0-0.7,0-1.2-0.1c-0.5,0-1-0.2-1.6-0.4c-0.3,1.5-0.8,3-1.5,4.4c-0.8,1.4-1.7,2.7-2.8,3.9
				s-2.4,2.3-3.8,3.4s-2.9,1.9-4.6,2.8l-3.4-4.7c0.9-0.4,1.8-0.9,2.7-1.5c0.9-0.5,1.8-1.1,2.6-1.7c0.8-0.6,1.6-1.2,2.3-1.9
				c0.7-0.6,1.3-1.3,1.8-2c0.5-0.7,0.9-1.4,1.2-2.1s0.4-1.4,0.4-2.2c0,0,0-0.1,0-0.2c0-0.1,0-0.2,0-0.2v-0.2l0,0v0.1
				c-0.1-0.7-0.2-1.4-0.4-2.1c-0.2-0.7-0.4-1.3-0.6-2c-0.2-0.7-0.5-1.4-0.9-2.2c-0.3-0.8-0.7-1.6-1.1-2.5l5.4-2.4
				c0.5,1.5,1,2.7,1.4,3.7c0.4,1,0.9,1.8,1.3,2.4c0.4,0.6,0.8,1,1.3,1.3c0.4,0.2,0.9,0.4,1.3,0.4h0.1c0.4,0,0.8,0.1,1.2,0.2
				c0.4,0.2,0.7,0.4,0.9,0.6c0.3,0.3,0.5,0.6,0.6,0.9c0.2,0.4,0.2,0.7,0.2,1.1c0,0.4-0.1,0.8-0.2,1.2c-0.2,0.4-0.4,0.7-0.6,0.9
				c-0.3,0.3-0.6,0.5-0.9,0.6C359.6,381.7,359.2,381.8,358.8,381.8z"/>
			<path class="st1" d="M355.8,378.8c0-0.4,0.1-0.8,0.2-1.1c0.2-0.4,0.4-0.7,0.6-0.9c0.3-0.3,0.5-0.5,0.9-0.7
				c0.3-0.2,0.7-0.3,1.1-0.3c0.9,0,1.7-0.3,2.4-0.8c0.6-0.5,1.2-1.2,1.7-2c0.5-0.8,0.9-1.8,1.2-2.8c0.3-1.1,0.6-2.1,0.9-3.2l5,0.9
				c-0.1,0.4-0.2,0.9-0.4,1.5c-0.1,0.6-0.3,1.2-0.4,1.8c-0.1,0.6-0.2,1.2-0.3,1.8c-0.1,0.4-0.1,0.7-0.1,1c0,0.2,0,0.4,0,0.5
				c0,0.4,0.2,0.8,0.3,1c0.1,0.2,0.4,0.3,0.7,0.3c0.1,0,0.1,0,0.2,0c0.5,0,1-0.2,1.4-0.5c0.4-0.3,0.8-0.7,1.1-1.2
				c0.3-0.5,0.6-1,0.9-1.6c0.3-0.6,0.5-1.2,0.6-1.9c0.2-0.6,0.3-1.3,0.4-1.9c0.1-0.6,0.2-1.2,0.3-1.7l4.8,0.8c0,0.4-0.1,0.8-0.1,1.4
				c-0.1,0.6-0.1,1.1-0.2,1.7c-0.1,0.6-0.1,1.2-0.1,1.8c0,0.6,0.1,1.2,0.2,1.6c0.1,0.5,0.4,0.9,0.7,1.2c0.3,0.3,0.8,0.4,1.3,0.4
				c0.3,0,0.7-0.1,1.1-0.2c0.4-0.1,0.7-0.3,1-0.5c0.3-0.2,0.5-0.5,0.7-0.8c0.2-0.3,0.3-0.6,0.3-1c0-0.6-0.1-1.4-0.3-2.1
				c-0.2-0.8-0.5-1.6-0.8-2.3c-0.3-0.8-0.6-1.5-0.9-2.2c-0.3-0.7-0.6-1.3-0.8-1.7l4.6-2.6c0.1,0.2,0.2,0.4,0.4,0.9
				c0.2,0.4,0.4,0.9,0.6,1.5c0.2,0.6,0.5,1.2,0.7,1.9c0.3,0.7,0.5,1.5,0.7,2.2c0.2,0.8,0.4,1.6,0.5,2.4c0.1,0.8,0.2,1.6,0.2,2.4
				c0,1.2-0.2,2.4-0.5,3.4c-0.3,1-0.9,1.8-1.6,2.5c-0.7,0.7-1.6,1.2-2.6,1.6c-1,0.4-2.3,0.6-3.7,0.6c-0.7,0-1.3-0.1-1.8-0.2
				c-0.5-0.1-1-0.3-1.5-0.5c-0.4-0.2-0.8-0.5-1.2-0.8s-0.6-0.6-0.9-1c-0.3,0.4-0.6,0.7-1,1c-0.3,0.3-0.7,0.6-1.2,0.8
				c-0.4,0.2-0.9,0.4-1.5,0.5c-0.5,0.1-1.2,0.2-1.9,0.2h-0.2c-0.6,0-1-0.1-1.5-0.2c-0.5-0.1-1-0.3-1.4-0.5c-0.4-0.2-0.8-0.5-1.1-0.8
				c-0.3-0.3-0.6-0.7-0.9-1.1c-0.3,0.3-0.6,0.6-0.9,0.9c-0.3,0.3-0.7,0.5-1.2,0.7c-0.5,0.2-1,0.4-1.6,0.5c-0.6,0.1-1.3,0.2-2.1,0.2
				h-0.3c-0.4,0-0.8-0.1-1.1-0.3c-0.3-0.2-0.6-0.4-0.9-0.6c-0.2-0.3-0.4-0.6-0.6-0.9C355.9,379.6,355.8,379.2,355.8,378.8z
				 M383.3,359l-3.6,3.6l-3.6-3.6l-3.5,3.5l-3.6-3.6l3.6-3.6l3.6,3.6l3.5-3.5L383.3,359z M372.9,353.5l3.3-3.3l3.4,3.4l-3.3,3.3
				L372.9,353.5z"/>
		</g>
	</g>
</g>
</svg>
