<?xml version="1.0" encoding="utf-8"?>
<!-- Generator: Adobe Illustrator 23.0.1, SVG Export Plug-In . SVG Version: 6.00 Build 0)  -->
<svg version="1.1" id="_x31__x2C_5" xmlns="http://www.w3.org/2000/svg" xmlns:xlink="http://www.w3.org/1999/xlink" x="0px"
	 y="0px" viewBox="0 0 203.6 203.6" style="enable-background:new 0 0 203.6 203.6;" xml:space="preserve">
<style type="text/css">
	.st0{fill-rule:evenodd;clip-rule:evenodd;fill:#A8A8A8;}
</style>
<g>
	<path class="st0" d="M99.3,31.6c-1.9-0.4-3.9,0.8-4.3,2.7c-0.5,1.9,0.8,3.9,2.7,4.3c8.9,2.1,17.1,6.6,23.7,13.1
		c19.2,19.2,19.2,50.3,0,69.5s-50.3,19.2-69.5,0s-19.2-50.3,0-69.5c5.5-5.5,12-9.5,19.3-11.9c1.9-0.6,2.9-2.7,2.3-4.5
		c-0.6-1.9-2.7-2.9-4.5-2.3c-8.3,2.7-15.8,7.3-22.1,13.6c-21.9,21.9-21.9,57.7,0,79.7c11,11,25.4,16.5,39.8,16.5s28.8-5.5,39.8-16.5
		c21.9-21.9,21.9-57.7,0-79.7C118.9,39.2,109.5,34,99.3,31.6z"/>
	<path class="st0" d="M189.2,165.5l-37.7-37.7c19.3-30.3,15.1-70.1-10.5-95.7C126.4,17.6,107.1,9.5,86.5,9.5s-39.9,8-54.4,22.6
		C17.6,46.6,9.6,65.9,9.6,86.5s8,39.9,22.6,54.4c14.5,14.5,33.8,22.6,54.4,22.6c14.7,0,29-4.1,41.3-12l37.7,37.7
		c3.2,3.2,7.4,4.9,11.8,4.9c4.5,0,8.7-1.7,11.8-4.9C195.7,182.6,195.7,172,189.2,165.5z M184.1,184c-1.8,1.8-4.2,2.8-6.7,2.8
		s-5-1-6.7-2.8l-39.8-39.8c-0.7-0.7-1.6-1-2.5-1c-0.7,0-1.4,0.2-2.1,0.6c-11.7,8.1-25.4,12.4-39.7,12.4c-18.6,0-36.2-7.3-49.3-20.4
		C10,108.7,10,64.4,37.2,37.1c13.2-13.2,30.7-20.4,49.3-20.4s36.2,7.3,49.3,20.4c23.9,23.9,27.2,61.4,8,89c-1,1.4-0.8,3.4,0.4,4.6
		l39.8,39.8C187.8,174.3,187.8,180.3,184.1,184z"/>
	<path class="st0" d="M108.2,64.8c-1.4-1.4-3.6-1.4-5.1,0L86.5,81.4L69.9,64.8c-1.4-1.4-3.6-1.4-5.1,0c-1.4,1.4-1.4,3.6,0,5.1
		l16.6,16.6l-16.6,16.6c-1.4,1.4-1.4,3.6,0,5.1c0.7,0.7,1.7,1,2.5,1c0.9,0,1.9-0.3,2.5-1l16.6-16.6l16.6,16.6c0.7,0.7,1.7,1,2.5,1
		s1.9-0.3,2.5-1c1.4-1.4,1.4-3.6,0-5.1L91.6,86.5l16.6-16.6C109.6,68.5,109.6,66.2,108.2,64.8z"/>
	<path class="st0" d="M84.1,37.4c2,0,3.6-1.6,3.6-3.6s-1.6-3.6-3.6-3.6s-3.6,1.6-3.6,3.6C80.5,35.8,82.1,37.4,84.1,37.4z"/>
</g>
</svg>
