<?xml version="1.0" encoding="utf-8"?>
<!-- Generator: Adobe Illustrator 23.0.1, SVG Export Plug-In . SVG Version: 6.00 Build 0)  -->
<svg version="1.1" id="Capa_1" xmlns="http://www.w3.org/2000/svg" xmlns:xlink="http://www.w3.org/1999/xlink" x="0px" y="0px"
	 viewBox="0 0 512 512" style="enable-background:new 0 0 512 512;" xml:space="preserve">
<style type="text/css">
	.st0{opacity:0.47;fill:url(#SVGID_1_);enable-background:new    ;}
	.st1{fill:#FD003A;}
	.st2{fill:#E50027;}
</style>
<g>
	
		<radialGradient id="SVGID_1_" cx="256" cy="209.9969" r="151.912" gradientTransform="matrix(1 0 0 -0.4 0 535.6988)" gradientUnits="userSpaceOnUse">
		<stop  offset="2.717173e-07" style="stop-color:#000000"/>
		<stop  offset="0.125" style="stop-color:#040404;stop-opacity:0.875"/>
		<stop  offset="0.2505" style="stop-color:#101010;stop-opacity:0.7495"/>
		<stop  offset="0.3762" style="stop-color:#242424;stop-opacity:0.6238"/>
		<stop  offset="0.5023" style="stop-color:#404040;stop-opacity:0.4977"/>
		<stop  offset="0.6286" style="stop-color:#656565;stop-opacity:0.3714"/>
		<stop  offset="0.7551" style="stop-color:#929292;stop-opacity:0.2449"/>
		<stop  offset="0.8793" style="stop-color:#C5C5C5;stop-opacity:0.1207"/>
		<stop  offset="1" style="stop-color:#FFFFFF;stop-opacity:0"/>
	</radialGradient>
	<ellipse class="st0" cx="256" cy="451.7" rx="206.2" ry="60.3"/>
	<g>
		<path class="st1" d="M256,0C168.2,0,96.8,71.4,96.8,159.2c0,29.7,8.2,58.6,23.9,83.6l124.5,203.8c2.1,3.4,5.3,5.6,9,6.1
			c5,0.8,10.6-1.3,13.5-6.4l124.9-205.7c14.9-24.4,22.6-52.8,22.6-81.5C415.2,71.4,343.8,0,256,0z M256,238.8
			c-44.6,0-79.6-36.1-79.6-79.6c0-43.8,35.8-79.6,79.6-79.6s79.6,35.8,79.6,79.6C335.6,202.5,301.1,238.8,256,238.8z"/>
		<path class="st2" d="M256,0v79.6c43.8,0,79.6,35.8,79.6,79.6c0,43.3-34.5,79.6-79.6,79.6v214.1c4.5,0.1,9.2-2.1,11.8-6.5
			l124.9-205.7c14.9-24.4,22.6-52.8,22.6-81.5C415.2,71.4,343.8,0,256,0z"/>
	</g>
</g>
</svg>
