<?xml version="1.0" encoding="utf-8"?>
<!-- Generator: Adobe Illustrator 23.0.1, SVG Export Plug-In . SVG Version: 6.00 Build 0)  -->
<svg version="1.1" id="Layer_1" xmlns="http://www.w3.org/2000/svg" xmlns:xlink="http://www.w3.org/1999/xlink" x="0px" y="0px"
	 viewBox="0 0 475.8 498.4" style="enable-background:new 0 0 475.8 498.4;" xml:space="preserve">
<style type="text/css">
	.st0{fill:#FFF700;}
	.st1{fill:#E54141;}
</style>
<circle class="st0" cx="237.8" cy="256.2" r="200"/>
<g>
	<path d="M440.1,254.7c-0.2,111.5-90.3,201.8-202.1,201.5C126.7,455.9,36.7,365.7,37,254c0.4-111.2,90.5-201.2,202.2-200.8
		C350.3,53.5,439.9,143.3,440.1,254.7z M323.4,272.9c0.1,0,0.2,0,0.3,0c16.6-47.7,33.1-95.4,49.7-143.1c6.4,35,12.6,70,18.9,105
		c6.2,35,12.4,70,18.7,105.3c32.5-64.3,28.5-154.8-34.7-219.8c-59-60.8-151.7-76.1-227.9-35.6c-38.1,20.2-66.2,50.2-84.6,89.3
		c-9.9,21.2-15.6,43.6-17.3,67.2c1.7-0.4,3.3,0.5,4.7-0.8c7.2-6.5,14.4-12.9,21.6-19.4c1.5-1.4,3-2.7,4.6-4.1c0.6,0.5,1,0.8,1.5,1.2
		c3.3,2.7,6.5,5.4,9.8,8.1c0.4,0.3,1,0.6,1.6,0.6c3.3,0.1,6.6,0.2,9.9,0.2c13.2,0.1,26.5,0.2,39.7,0.2c6.8,0,13.6,0.1,20.4,0.2
		c7.8,0,15.6,0,23.4,0.1c0.8,0,1.2-0.3,1.6-0.9c2-2.9,4-5.8,6-8.7c0.2-0.3,0.5-0.7,0.8-1.1c8.5,7.1,17,14.1,25.4,21.1
		c-0.7,1-1.4,1.9-2.1,2.9c0.3,0.1,0.4,0.1,0.5,0.1c5.6,0,11.1,0,16.7,0c0.5,0,1.1-0.4,1.5-0.7c1.5-1.4,2.9-2.8,4.3-4.2
		c1.6-1.5,3.2-3.1,4.9-4.7c6.5,14,12.8,27.9,19.3,42c11.2-21.5,22.2-42.6,33.3-64C305.3,230.7,314.4,251.8,323.4,272.9z M365.7,252
		c-0.1,0-0.2,0-0.3,0c-0.1,0.4-0.3,0.7-0.4,1.1c-1.8,5.9-3.5,11.9-5.3,17.8c-6.1,20.3-12.1,40.7-18.2,61c-0.3,1.1-0.8,1.4-1.9,1.4
		c-4.5-0.1-9-0.1-13.4-0.1c-1,0-1.4-0.3-1.7-1.2c-8.5-21.9-17.1-43.8-25.6-65.7c-1.1-2.7-2.1-5.4-3.3-8.5
		c-9.4,18.8-18.6,37.3-28,55.9c-0.3-0.5-0.5-0.7-0.6-1c-1.9-3.4-3.7-6.7-5.6-10.1c-8.1-14.5-16.2-29.1-24.3-43.6
		c-0.4-0.7-0.6-1.3-1.6-1.3c-10.6,0-21.2,0-31.8,0.1c-0.5,0-1.1,0.3-1.4,0.7c-1.2,1.5-2.3,3-3.4,4.5c-12.6,16.9-25.2,33.9-37.8,50.8
		c-0.4,0.6-0.8,1-0.3,1.9c4.2,7.9,8.4,15.8,12.5,23.7c13.7,26,27.4,51.9,41,77.9c5,9.5,10,19,15,28.5c0.3,0.6,0.7,0.9,1.4,0.9
		c0.5,0,1,0.1,1.6,0.1c10.5,0.3,20.9-0.2,31.3-1.6c12.6-1.6,25-4.5,37-8.6c34.4-11.9,63.2-31.9,86.5-59.9c0.7-0.8,0.8-1.5,0.7-2.5
		c-3.6-20-7.2-40-10.9-60.1c-3.3-18-6.5-35.9-9.8-53.9C366.7,257.7,366.2,254.9,365.7,252z M140.9,335.8
		c-15.7,15.3-31.3,30.5-47,45.7c14.8,16.7,31.8,30.5,51.2,41.3c19.3,10.8,39.9,17.9,62,21.6C184.9,408.2,162.9,372.1,140.9,335.8z
		 M84.7,370.4c0.3-0.4,0.5-0.6,0.6-0.8c11.2-18.3,22.3-36.7,33.5-55c0.5-0.8,0.4-1.2-0.2-1.9c-15-17.9-30-35.9-45-53.9
		c-0.6-0.7-1.2-0.9-2-0.9c-8,0-16,0-24,0c-1.1,0-1.5-0.3-1.4-1.4c0.1-2.1,0-4.2,0-6.4C45.4,294.6,58.3,334.6,84.7,370.4z M106.9,258
		c0.2,0.3,0.3,0.5,0.4,0.6c9.5,11.4,19,22.9,28.5,34.3c0.2,0.2,0.6,0.5,0.9,0.5c1.4,0.1,2.6,0.1,3.7-1.3c9-11.1,18.2-22.2,27.3-33.3
		c0.2-0.3,0.4-0.5,0.7-0.9C147.8,258,127.4,258,106.9,258z"/>
</g>
<path class="st1" d="M46.6,241.1h186.2l10.8-9.8l19.3,42l33.3-64l27.5,63.6l49.7-143.1l37.5,210.3c0,0-6.1,13.2-11.2,21.1
	c-6.8,10.4-11.8,15.7-11.8,15.7L365,253.2l-24,80.6l-16.2-0.3L295.5,258l-28,55.9L237,259.2L46.2,258L46.6,241.1z"/>
</svg>
